<svg width="508" height="274" viewBox="0 0 508 274" fill="none" xmlns="http://www.w3.org/2000/svg">
<path d="M32.177 228.837L30.5924 236.781C30.473 237.388 30.3482 238.006 30.2126 238.619C28.8882 238.345 27.515 238.421 26.2294 238.841C27.2494 240.298 28.1634 241.825 28.9644 243.412C27.9659 246.487 26.5008 249.328 24.0479 251.384C22.4097 252.726 20.4531 253.623 18.3668 253.99C16.2804 254.357 14.1347 254.18 12.1366 253.477L12.2071 253.162C9.5698 248.049 11.0024 241.601 14.2801 236.878C15.9518 234.548 17.9325 232.456 20.1679 230.659C22.382 228.815 24.7751 227.161 27.1465 225.529C27.6792 225.163 28.3089 224.964 28.9552 224.957C29.6016 224.951 30.2353 225.137 30.7753 225.492C31.3152 225.847 31.737 226.355 31.9867 226.951C32.2364 227.546 32.3026 228.203 32.177 228.837Z" fill="#E4E4E4"/>
<path d="M12.7011 272.591C12.0342 267.736 11.3483 262.82 11.816 257.913C12.2317 253.555 13.5618 249.299 16.2707 245.809C17.7085 243.96 19.4581 242.376 21.4407 241.128C21.9578 240.802 22.4332 241.621 21.9187 241.945C18.4884 244.111 15.8352 247.31 14.3416 251.08C12.6919 255.273 12.4271 259.844 12.7136 264.297C12.8856 266.991 13.2498 269.666 13.6171 272.339C13.6467 272.46 13.6289 272.588 13.5674 272.696C13.5058 272.804 13.4052 272.885 13.2861 272.921C13.165 272.954 13.0358 272.938 12.9267 272.876C12.8175 272.814 12.7373 272.711 12.7033 272.591L12.7011 272.591Z" fill="#F2F2F2"/>
<path d="M18.4247 29.0833C41.6708 28.6794 64.9193 28.6214 88.1703 28.9093C111.418 29.1988 134.658 29.8358 157.89 30.8203C170.926 31.3727 183.958 32.0345 196.983 32.8057C198.03 32.8676 198.026 31.2406 196.983 31.179C173.775 29.8066 150.549 28.7797 127.306 28.0984C104.066 27.4188 80.8201 27.0867 57.5672 27.1021C44.519 27.1107 31.4715 27.2289 18.4247 27.4566C17.3783 27.4748 17.375 29.1016 18.4247 29.0833V29.0833Z" fill="#E6E6E6"/>
<path d="M180.427 18.8835L190.592 18.1275C191.631 18.0503 191.639 16.4229 190.592 16.5008L180.427 17.2567C179.389 17.334 179.381 18.9613 180.427 18.8835Z" fill="#E6E6E6"/>
<path d="M180.427 28.6433L190.592 27.8873C191.631 27.8101 191.639 26.1827 190.592 26.2605L180.427 27.0165C179.389 27.0937 179.381 28.7211 180.427 28.6433Z" fill="#E6E6E6"/>
<path d="M179.663 24.1854L194.115 25.4974C195.158 25.5921 195.151 23.9648 194.115 23.8706L179.663 22.5587C178.62 22.464 178.626 24.0913 179.663 24.1854Z" fill="#E6E6E6"/>
<path d="M24.4402 16.6954C23.7333 16.691 23.0408 16.8947 22.4489 17.2809C21.8571 17.6671 21.3921 18.2189 21.112 18.8674C20.7986 19.5021 20.7018 20.222 20.8365 20.9168C20.9712 21.6117 21.33 22.2433 21.8579 22.7152C22.3542 23.1371 22.9495 23.4264 23.588 23.556C24.2266 23.6857 24.8876 23.6514 25.5093 23.4564C26.1452 23.2345 26.6965 22.8211 27.0875 22.2732C27.4785 21.7252 27.6899 21.0696 27.6927 20.3967C27.7211 19.65 27.5186 18.9128 27.1129 18.2851C26.7072 17.6575 26.1179 17.17 25.4251 16.8888C25.217 16.8323 24.9949 16.8603 24.8074 16.9667C24.6198 17.0731 24.4819 17.2493 24.4238 17.4569C24.3725 17.6647 24.4028 17.8842 24.5086 18.0704C24.6143 18.2565 24.7875 18.395 24.9924 18.4575C25.1342 18.5122 24.8628 18.3878 24.9952 18.4599C25.0497 18.4895 25.1052 18.5163 25.1587 18.548C25.2041 18.5749 25.2476 18.6043 25.2919 18.6332C25.4438 18.7323 25.2177 18.5604 25.3148 18.6495C25.3991 18.7268 25.4825 18.8022 25.559 18.8874C25.588 18.9196 25.7014 19.0093 25.6133 18.9466C25.5458 18.8987 25.5873 18.91 25.6133 18.9484C25.633 18.9777 25.6538 19.0061 25.6733 19.0355C25.7368 19.1314 25.7944 19.2311 25.8461 19.3339C25.858 19.3577 25.869 19.382 25.8811 19.4057C25.9039 19.4501 25.937 19.4617 25.8834 19.4061C25.8322 19.353 25.8648 19.3567 25.8831 19.4077C25.8951 19.4413 25.9083 19.4745 25.92 19.5082C25.9582 19.6179 25.9902 19.7297 26.016 19.8429C26.0279 19.8953 26.0375 19.9479 26.0477 20.0006C26.0841 20.1874 26.0425 19.8845 26.0512 20.0232C26.0586 20.1391 26.0671 20.2537 26.0651 20.37C26.0642 20.4232 26.0619 20.4764 26.0582 20.5295C26.0563 20.556 26.0533 20.5824 26.0516 20.6089C26.0431 20.7365 26.0429 20.5622 26.0608 20.5503C26.0235 20.6587 25.9989 20.7709 25.9872 20.8849C25.9726 20.9354 25.9553 20.9849 25.9391 21.0349C25.8824 21.2094 25.9922 20.9398 25.9319 21.0591C25.8822 21.1615 25.8267 21.2611 25.7656 21.3572C25.7391 21.3974 25.6391 21.4883 25.7208 21.425C25.8096 21.3564 25.6743 21.4746 25.6454 21.505C25.6084 21.5441 25.5699 21.5818 25.53 21.6182C25.5045 21.6431 25.4775 21.6665 25.4493 21.6883C25.4441 21.6857 25.5853 21.5941 25.5092 21.6426C25.4125 21.7042 25.3209 21.7702 25.219 21.8238C25.2071 21.8301 25.0768 21.8904 25.0773 21.8925C25.0717 21.8706 25.2448 21.8316 25.126 21.87C25.101 21.8781 25.0765 21.8878 25.0517 21.8962C24.9435 21.9326 24.833 21.962 24.721 21.9842C24.6954 21.9893 24.6683 21.9919 24.643 21.9984C24.5589 22.0201 24.7234 21.9856 24.7283 21.9885C24.6662 21.9858 24.6039 21.9913 24.5431 22.0049C24.4276 22.0115 24.3118 22.0115 24.1963 22.0048C24.1696 22.0033 24.143 22.0007 24.1163 21.9991C24.0542 21.9955 24.0087 21.9508 24.0912 21.9993C24.1549 22.0367 24.1496 22.0094 24.0932 21.999C24.0668 21.9941 24.0403 21.99 24.0139 21.9851C23.8996 21.9637 23.7866 21.936 23.6753 21.9022C23.6155 21.884 23.5568 21.8628 23.4977 21.8422C23.472 21.8347 23.4469 21.8251 23.4228 21.8133C23.4225 21.8067 23.5751 21.8862 23.4945 21.8428C23.3928 21.7881 23.2877 21.7422 23.1884 21.6823C23.1354 21.6504 23.0845 21.6157 23.033 21.5815C23.0104 21.5678 22.9888 21.5524 22.9686 21.5354C22.9703 21.5285 23.0948 21.6438 23.0294 21.5815C22.9468 21.5028 22.8584 21.4324 22.7801 21.3486C22.7622 21.3294 22.7453 21.3093 22.7274 21.2901L22.7101 21.2704C22.666 21.2165 22.6652 21.2168 22.7077 21.2712C22.7508 21.2839 22.7489 21.3312 22.7079 21.2697C22.6933 21.2478 22.6778 21.2266 22.6633 21.2047C22.5972 21.1105 22.5408 21.0099 22.495 20.9044C22.499 20.9013 22.5655 21.1001 22.5147 20.9501C22.505 20.9218 22.4942 20.8939 22.4848 20.8655C22.4661 20.8091 22.4496 20.7521 22.4354 20.6945C22.4214 20.6375 22.4141 20.5786 22.3999 20.5218C22.376 20.426 22.4139 20.5973 22.4096 20.5931C22.396 20.5797 22.4018 20.4966 22.4008 20.4767C22.3943 20.3491 22.4088 20.2252 22.4111 20.0984C22.4129 20.0001 22.403 20.1749 22.4009 20.1698C22.4014 20.1404 22.4066 20.1112 22.4164 20.0834C22.4311 20.0165 22.4448 19.9497 22.4629 19.8835C22.4835 19.8078 22.5073 19.7329 22.5342 19.659C22.5442 19.6314 22.5565 19.6041 22.5658 19.5762C22.6001 19.4741 22.498 19.6996 22.5543 19.6075C22.6317 19.4808 22.6894 19.3436 22.7717 19.2185C22.7911 19.1888 22.9096 19.0236 22.8467 19.107C22.7841 19.1901 22.9111 19.0326 22.9351 19.0059C23.035 18.8948 23.1524 18.8036 23.2557 18.6972C23.3169 18.6342 23.213 18.7282 23.2069 18.7326C23.2389 18.7097 23.2703 18.686 23.3027 18.6637C23.3592 18.6247 23.4171 18.5879 23.4764 18.5533C23.5432 18.5141 23.6187 18.485 23.6834 18.4436C23.7599 18.3947 23.6249 18.4651 23.6225 18.4666C23.6574 18.4493 23.6939 18.4353 23.7315 18.425C23.7946 18.4027 24.0687 18.2845 24.1262 18.3215C24.1236 18.3198 23.9181 18.338 24.0842 18.3273C24.1235 18.3248 24.1626 18.321 24.2019 18.3194C24.2815 18.3161 24.3607 18.3181 24.4402 18.3222C24.6556 18.3208 24.8619 18.2346 25.0142 18.0824C25.1666 17.9301 25.2528 17.7241 25.2542 17.5088C25.2496 17.2945 25.1623 17.0903 25.0107 16.9387C24.859 16.7872 24.6546 16.7 24.4402 16.6954L24.4402 16.6954Z" fill="#E6E6E6"/>
<path d="M35.8362 16.6954C35.1293 16.691 34.4368 16.8947 33.8449 17.2809C33.2531 17.6671 32.7881 18.2189 32.508 18.8674C32.1945 19.5021 32.0978 20.222 32.2325 20.9168C32.3672 21.6117 32.726 22.2433 33.2539 22.7152C33.7502 23.1371 34.3455 23.4264 34.984 23.556C35.6226 23.6857 36.2836 23.6514 36.9053 23.4564C37.5412 23.2345 38.0925 22.8211 38.4835 22.2732C38.8745 21.7252 39.0859 21.0696 39.0887 20.3967C39.1171 19.65 38.9146 18.9128 38.5089 18.2851C38.1032 17.6575 37.5139 17.17 36.8211 16.8888C36.613 16.8323 36.3909 16.8603 36.2034 16.9667C36.0158 17.0731 35.8779 17.2493 35.8198 17.4569C35.7685 17.6647 35.7988 17.8842 35.9046 18.0704C36.0103 18.2565 36.1835 18.395 36.3884 18.4575C36.5302 18.5122 36.2588 18.3878 36.3912 18.4599C36.4457 18.4895 36.5012 18.5163 36.5546 18.548C36.6001 18.5749 36.6436 18.6043 36.6879 18.6332C36.8398 18.7323 36.6137 18.5604 36.7108 18.6495C36.795 18.7268 36.8785 18.8022 36.955 18.8874C36.984 18.9196 37.0974 19.0093 37.0093 18.9466C36.9418 18.8987 36.9833 18.91 37.0092 18.9484C37.029 18.9777 37.0498 19.0061 37.0693 19.0355C37.1328 19.1314 37.1904 19.2311 37.2421 19.3339C37.254 19.3577 37.265 19.382 37.2771 19.4057C37.2999 19.4501 37.333 19.4617 37.2794 19.4061C37.2282 19.353 37.2608 19.3567 37.2791 19.4077C37.2911 19.4413 37.3043 19.4745 37.316 19.5082C37.3542 19.6179 37.3862 19.7297 37.412 19.8429C37.4239 19.8953 37.4335 19.9479 37.4437 20.0006C37.4801 20.1874 37.4385 19.8845 37.4472 20.0232C37.4546 20.1391 37.4631 20.2537 37.4611 20.37C37.4602 20.4232 37.4579 20.4764 37.4542 20.5295C37.4523 20.556 37.4493 20.5824 37.4476 20.6089C37.4391 20.7365 37.4389 20.5622 37.4567 20.5503C37.4195 20.6587 37.3949 20.7709 37.3832 20.8849C37.3686 20.9354 37.3513 20.9849 37.3351 21.0349C37.2784 21.2094 37.3882 20.9398 37.3279 21.0591C37.2782 21.1615 37.2227 21.2611 37.1616 21.3572C37.1351 21.3974 37.0351 21.4883 37.1168 21.425C37.2056 21.3564 37.0703 21.4746 37.0414 21.505C37.0044 21.5441 36.9659 21.5818 36.926 21.6182C36.9005 21.6431 36.8735 21.6665 36.8453 21.6883C36.8401 21.6857 36.9813 21.5941 36.9052 21.6426C36.8085 21.7042 36.7169 21.7702 36.6149 21.8238C36.6031 21.8301 36.4728 21.8904 36.4733 21.8925C36.4677 21.8706 36.6408 21.8316 36.522 21.87C36.497 21.8781 36.4725 21.8878 36.4477 21.8962C36.3395 21.9326 36.229 21.962 36.117 21.9842C36.0914 21.9893 36.0643 21.9919 36.039 21.9984C35.9548 22.0201 36.1194 21.9856 36.1243 21.9885C36.0621 21.9858 35.9999 21.9913 35.9391 22.0049C35.8236 22.0115 35.7078 22.0115 35.5923 22.0048C35.5656 22.0033 35.539 22.0007 35.5122 21.9991C35.4502 21.9955 35.4047 21.9508 35.4872 21.9993C35.5509 22.0367 35.5456 22.0094 35.4892 21.999C35.4628 21.9941 35.4363 21.99 35.4099 21.9851C35.2956 21.9637 35.1826 21.936 35.0713 21.9022C35.0114 21.884 34.9528 21.8628 34.8937 21.8422C34.868 21.8347 34.8429 21.8251 34.8188 21.8133C34.8185 21.8067 34.9711 21.8862 34.8905 21.8428C34.7888 21.7881 34.6837 21.7422 34.5844 21.6823C34.5314 21.6504 34.4805 21.6157 34.429 21.5815C34.4063 21.5678 34.3848 21.5524 34.3646 21.5354C34.3663 21.5285 34.4908 21.6438 34.4254 21.5815C34.3428 21.5028 34.2544 21.4324 34.1761 21.3486C34.1582 21.3294 34.1413 21.3093 34.1234 21.2901L34.1061 21.2704C34.062 21.2165 34.0612 21.2168 34.1037 21.2712C34.1468 21.2839 34.1449 21.3312 34.1039 21.2697C34.0893 21.2478 34.0738 21.2266 34.0593 21.2047C33.9932 21.1105 33.9368 21.0099 33.891 20.9044C33.895 20.9013 33.9615 21.1001 33.9107 20.9501C33.901 20.9218 33.8902 20.8939 33.8808 20.8655C33.8621 20.8091 33.8456 20.7521 33.8314 20.6945C33.8174 20.6375 33.8101 20.5786 33.7959 20.5218C33.772 20.426 33.8099 20.5973 33.8056 20.5931C33.792 20.5797 33.7978 20.4966 33.7968 20.4767C33.7903 20.3491 33.8048 20.2252 33.8071 20.0984C33.8089 20.0001 33.799 20.1749 33.7969 20.1698C33.7974 20.1404 33.8026 20.1112 33.8124 20.0834C33.8271 20.0165 33.8408 19.9497 33.8588 19.8835C33.8795 19.8078 33.9033 19.7329 33.9302 19.659C33.9402 19.6314 33.9525 19.6041 33.9618 19.5762C33.9961 19.4741 33.894 19.6996 33.9503 19.6075C34.0277 19.4808 34.0854 19.3436 34.1676 19.2185C34.1871 19.1888 34.3056 19.0236 34.2427 19.107C34.1801 19.1901 34.3071 19.0326 34.3311 19.0059C34.4309 18.8948 34.5484 18.8036 34.6517 18.6972C34.7129 18.6342 34.609 18.7282 34.6029 18.7326C34.6349 18.7097 34.6663 18.686 34.6987 18.6637C34.7552 18.6247 34.8131 18.5879 34.8724 18.5533C34.9392 18.5141 35.0147 18.485 35.0794 18.4436C35.1558 18.3947 35.0209 18.4651 35.0185 18.4666C35.0534 18.4493 35.0899 18.4353 35.1275 18.425C35.1906 18.4027 35.4647 18.2845 35.5222 18.3215C35.5196 18.3198 35.314 18.338 35.4802 18.3273C35.5195 18.3248 35.5586 18.321 35.5979 18.3194C35.6775 18.3161 35.7567 18.3181 35.8362 18.3222C36.0516 18.3208 36.2579 18.2346 36.4102 18.0824C36.5626 17.9301 36.6488 17.7241 36.6502 17.5088C36.6456 17.2945 36.5583 17.0903 36.4067 16.9387C36.255 16.7872 36.0506 16.7 35.8362 16.6954L35.8362 16.6954Z" fill="#E6E6E6"/>
<path d="M47.2317 16.6954C46.5248 16.691 45.8323 16.8947 45.2404 17.2809C44.6486 17.6671 44.1836 18.2189 43.9035 18.8674C43.5901 19.5021 43.4933 20.222 43.628 20.9168C43.7627 21.6117 44.1215 22.2433 44.6494 22.7152C45.1457 23.1371 45.741 23.4264 46.3795 23.556C47.0181 23.6857 47.6791 23.6514 48.3009 23.4564C48.9367 23.2345 49.488 22.8211 49.879 22.2732C50.27 21.7252 50.4814 21.0696 50.4842 20.3967C50.5126 19.65 50.3101 18.9128 49.9044 18.2851C49.4987 17.6575 48.9094 17.17 48.2166 16.8888C48.0085 16.8323 47.7864 16.8603 47.5989 16.9667C47.4113 17.0731 47.2734 17.2493 47.2153 17.4569C47.164 17.6647 47.1943 17.8842 47.3001 18.0704C47.4058 18.2565 47.579 18.395 47.7839 18.4575C47.9257 18.5122 47.6543 18.3878 47.7867 18.4599C47.8412 18.4895 47.8967 18.5163 47.9502 18.548C47.9956 18.5749 48.0392 18.6043 48.0834 18.6332C48.2353 18.7323 48.0092 18.5604 48.1063 18.6495C48.1906 18.7268 48.274 18.8022 48.3506 18.8874C48.3795 18.9196 48.4929 19.0093 48.4048 18.9466C48.3373 18.8987 48.3788 18.91 48.4048 18.9484C48.4245 18.9777 48.4453 19.0061 48.4648 19.0355C48.5283 19.1314 48.586 19.2311 48.6376 19.3339C48.6495 19.3577 48.6605 19.382 48.6726 19.4057C48.6954 19.4501 48.7285 19.4617 48.6749 19.4061C48.6237 19.353 48.6563 19.3567 48.6746 19.4077C48.6866 19.4413 48.6998 19.4745 48.7115 19.5082C48.7497 19.6179 48.7817 19.7297 48.8075 19.8429C48.8194 19.8953 48.829 19.9479 48.8392 20.0006C48.8756 20.1874 48.834 19.8845 48.8427 20.0232C48.8501 20.1391 48.8586 20.2537 48.8566 20.37C48.8557 20.4232 48.8534 20.4764 48.8497 20.5295C48.8478 20.556 48.8448 20.5824 48.8431 20.6089C48.8347 20.7365 48.8344 20.5622 48.8523 20.5503C48.8151 20.6587 48.7904 20.7709 48.7787 20.8849C48.7641 20.9354 48.7468 20.9849 48.7306 21.0349C48.6739 21.2094 48.7837 20.9398 48.7234 21.0591C48.6737 21.1615 48.6182 21.2611 48.5571 21.3572C48.5306 21.3974 48.4306 21.4883 48.5123 21.425C48.6011 21.3564 48.4658 21.4746 48.4369 21.505C48.3999 21.5441 48.3614 21.5818 48.3215 21.6182C48.296 21.6431 48.269 21.6665 48.2408 21.6883C48.2356 21.6857 48.3768 21.5941 48.3007 21.6426C48.204 21.7042 48.1124 21.7702 48.0105 21.8238C47.9986 21.8301 47.8683 21.8904 47.8688 21.8925C47.8632 21.8706 48.0363 21.8316 47.9175 21.87C47.8925 21.8781 47.868 21.8878 47.8432 21.8962C47.735 21.9326 47.6245 21.962 47.5125 21.9842C47.4869 21.9893 47.4598 21.9919 47.4345 21.9984C47.3504 22.0201 47.5149 21.9856 47.5199 21.9885C47.4577 21.9858 47.3954 21.9913 47.3346 22.0049C47.2191 22.0115 47.1033 22.0115 46.9879 22.0048C46.9611 22.0033 46.9345 22.0007 46.9078 21.9991C46.8457 21.9955 46.8002 21.9508 46.8827 21.9993C46.9464 22.0367 46.9411 22.0094 46.8847 21.999C46.8583 21.9941 46.8318 21.99 46.8054 21.9851C46.6911 21.9637 46.5781 21.936 46.4668 21.9022C46.407 21.884 46.3483 21.8628 46.2892 21.8422C46.2635 21.8347 46.2384 21.8251 46.2143 21.8133C46.214 21.8067 46.3666 21.8862 46.286 21.8428C46.1843 21.7881 46.0792 21.7422 45.9799 21.6823C45.9269 21.6504 45.876 21.6157 45.8245 21.5815C45.8019 21.5678 45.7803 21.5524 45.7601 21.5354C45.7618 21.5285 45.8863 21.6438 45.8209 21.5815C45.7383 21.5028 45.6499 21.4324 45.5716 21.3486C45.5537 21.3294 45.5368 21.3093 45.5189 21.2901L45.5016 21.2704C45.4575 21.2165 45.4567 21.2168 45.4992 21.2712C45.5423 21.2839 45.5404 21.3312 45.4994 21.2697C45.4849 21.2478 45.4693 21.2266 45.4548 21.2047C45.3887 21.1105 45.3323 21.0099 45.2865 20.9044C45.2905 20.9013 45.3571 21.1001 45.3062 20.9501C45.2966 20.9218 45.2857 20.8939 45.2763 20.8655C45.2576 20.8091 45.2412 20.7521 45.2269 20.6945C45.2129 20.6375 45.2056 20.5786 45.1915 20.5218C45.1675 20.426 45.2054 20.5973 45.2011 20.5931C45.1875 20.5797 45.1933 20.4966 45.1923 20.4767C45.1858 20.3491 45.2003 20.2252 45.2026 20.0984C45.2044 20.0001 45.1945 20.1749 45.1924 20.1698C45.1929 20.1404 45.1981 20.1112 45.2079 20.0834C45.2226 20.0165 45.2363 19.9497 45.2544 19.8835C45.275 19.8078 45.2988 19.7329 45.3257 19.659C45.3357 19.6314 45.348 19.6041 45.3573 19.5762C45.3916 19.4741 45.2895 19.6996 45.3458 19.6075C45.4232 19.4808 45.4809 19.3436 45.5632 19.2185C45.5826 19.1888 45.7011 19.0236 45.6382 19.107C45.5756 19.1901 45.7026 19.0326 45.7266 19.0059C45.8265 18.8948 45.9439 18.8036 46.0472 18.6972C46.1084 18.6342 46.0045 18.7282 45.9984 18.7326C46.0304 18.7097 46.0618 18.686 46.0942 18.6637C46.1507 18.6247 46.2086 18.5879 46.2679 18.5533C46.3347 18.5141 46.4102 18.485 46.4749 18.4436C46.5514 18.3947 46.4164 18.4651 46.414 18.4666C46.4489 18.4493 46.4854 18.4353 46.523 18.425C46.5861 18.4027 46.8602 18.2845 46.9177 18.3215C46.9151 18.3198 46.7096 18.338 46.8757 18.3273C46.915 18.3248 46.9541 18.321 46.9934 18.3194C47.073 18.3161 47.1522 18.3181 47.2317 18.3222C47.4471 18.3208 47.6534 18.2346 47.8057 18.0824C47.9581 17.9301 48.0443 17.7241 48.0457 17.5088C48.0411 17.2945 47.9538 17.0903 47.8022 16.9387C47.6505 16.7872 47.4461 16.7 47.2317 16.6954L47.2317 16.6954Z" fill="#E6E6E6"/>
<path d="M211.86 196.839H12.2132C9.6886 196.836 7.26823 195.833 5.48307 194.049C3.69792 192.265 2.69376 189.847 2.69092 187.324V9.51517C2.69375 6.99246 3.69789 4.57388 5.48304 2.79005C7.26819 1.00622 9.68857 0.00282886 12.2132 0H211.86C214.385 0.00282887 216.805 1.00622 218.59 2.79005C220.375 4.57388 221.38 6.99246 221.382 9.51517V187.324C221.38 189.847 220.375 192.265 218.59 194.049C216.805 195.833 214.385 196.836 211.86 196.839ZM12.2132 1.08451C9.97633 1.08706 7.83184 1.9761 6.25016 3.55661C4.66848 5.13711 3.77878 7.28 3.77624 9.51517V187.324C3.77884 189.559 4.66857 191.702 6.25025 193.283C7.83192 194.863 9.97637 195.752 12.2132 195.755H211.86C214.097 195.752 216.241 194.863 217.823 193.283C219.405 191.702 220.295 189.559 220.297 187.324V9.51517C220.295 7.28 219.405 5.13711 217.823 3.55661C216.242 1.9761 214.097 1.08706 211.86 1.08451H12.2132Z" fill="#E6E6E6"/>
<path d="M11.8825 120.981L82.0912 120.767L151.942 120.555L191.345 120.435C191.556 120.428 191.756 120.339 191.902 120.187C192.049 120.036 192.131 119.833 192.131 119.622C192.131 119.411 192.049 119.208 191.902 119.057C191.756 118.905 191.556 118.816 191.345 118.809L121.136 119.022L51.2853 119.234L11.8825 119.354C11.6715 119.361 11.4715 119.45 11.3249 119.602C11.1782 119.754 11.0962 119.956 11.0962 120.167C11.0962 120.378 11.1782 120.581 11.3249 120.733C11.4715 120.885 11.6715 120.974 11.8825 120.981Z" fill="#E6E6E6"/>
<path d="M47.3015 119.662L47.7356 94.0472C47.7533 93 46.1254 92.9998 46.1076 94.0472L45.6735 119.662C45.6557 120.709 47.2837 120.709 47.3015 119.662Z" fill="#E6E6E6"/>
<path d="M80.857 119.94L81.915 87.7435L82.2173 78.5446C82.2517 77.4975 80.6236 77.4988 80.5893 78.5446L79.5313 110.741L79.2291 119.94C79.1946 120.987 80.8227 120.986 80.857 119.94Z" fill="#E6E6E6"/>
<path d="M114.322 63.2813C113.684 74.685 112.503 108.321 111.865 119.725C111.806 120.771 113.434 120.767 113.493 119.725C114.131 108.321 115.312 74.685 115.95 63.2813C116.008 62.2353 114.38 62.2386 114.322 63.2813Z" fill="#E6E6E6"/>
<path d="M147.626 108.283L147.426 119.244C147.407 120.291 149.035 120.291 149.054 119.244C149.29 106.298 149.894 106.72 149.961 103.067C149.98 102.019 148.352 102.019 148.333 103.067C148.333 103.067 147.861 95.3375 147.626 108.283Z" fill="#E6E6E6"/>
<path d="M180.246 79.4888L180.43 110.239L180.483 119.045C180.49 119.256 180.579 119.455 180.731 119.602C180.883 119.748 181.086 119.83 181.297 119.83C181.508 119.83 181.711 119.748 181.863 119.602C182.015 119.455 182.104 119.256 182.111 119.045L181.927 88.2941L181.874 79.4888C181.867 79.278 181.778 79.0782 181.626 78.9316C181.474 78.785 181.271 78.7031 181.06 78.7031C180.849 78.7031 180.646 78.785 180.494 78.9316C180.342 79.0782 180.253 79.278 180.246 79.4888Z" fill="#E6E6E6"/>
<path d="M12.0131 120.066C10.6655 116.365 13.7032 112.806 16.8245 111.207C20.5639 109.291 24.8657 108.857 28.6448 107.01C34.2789 104.256 38.3825 99.3146 42.034 94.368C45.7923 89.2766 49.2312 83.8122 54.0068 79.5819C56.5233 77.3031 59.4955 75.5843 62.7266 74.5394C66.7978 73.2698 71.1155 73.1827 75.3222 73.6944C84.0148 74.7516 92.073 78.3393 100.46 80.6195C108.368 82.7693 117.081 83.9782 124.842 80.6351C128.786 78.9366 132.011 76.088 135.474 73.6229C138.826 71.2121 142.574 69.4055 146.549 68.2845C154.34 66.1195 162.849 66.6976 170.103 70.3576C176.771 73.6786 182.051 79.2467 185.01 86.0789C188.449 94.2879 188.001 103.461 186.878 112.102C186.587 114.335 186.242 116.561 185.892 118.786C185.732 119.81 187.3 120.251 187.462 119.218C188.861 110.309 190.256 101.117 188.515 92.1511C187.01 84.3223 182.702 77.3098 176.397 72.4257C170.065 67.5282 162.194 65.046 154.196 65.4244C150.005 65.6187 145.879 66.5357 142 68.1348C137.974 69.7989 134.565 72.2654 131.102 74.8608C127.541 77.5292 123.871 79.7364 119.45 80.6067C115.162 81.4509 110.702 81.1345 106.433 80.3374C97.6242 78.6928 89.4136 74.9229 80.6797 72.9913C72.5878 71.2016 63.8559 71.0228 56.6099 75.5908C51.036 79.1046 47.0974 84.5597 43.3176 89.8272C39.5708 95.0485 35.7767 100.632 30.298 104.199C26.956 106.374 23.1991 107.177 19.4604 108.401C15.7121 109.627 12.1137 111.697 10.5854 115.534C9.92666 117.115 9.87605 118.883 10.4433 120.498C10.7987 121.474 12.3726 121.053 12.0131 120.066V120.066Z" fill="#E6E6E6"/>
<path d="M46.7617 90.5059L46.7593 90.5071L46.7641 90.5059H46.7617Z" fill="#E6E6E6"/>
<path d="M49.5839 89.0084C49.2077 88.3426 48.6074 87.8316 47.8898 87.5662C47.1722 87.3008 46.3836 87.2982 45.6642 87.5588C45.3066 87.6892 44.9788 87.89 44.7002 88.1492C44.4216 88.4084 44.1979 88.7208 44.0422 89.068C44.011 89.1417 43.9928 89.2193 43.9674 89.2949C43.9321 89.3519 43.8897 89.4034 43.8581 89.463C43.5207 90.1348 43.4283 90.9032 43.5968 91.6358C43.7654 92.3684 44.1843 93.0193 44.7815 93.4765C45.3786 93.9336 46.1166 94.1684 46.8684 94.1403C47.6201 94.1123 48.3385 93.8231 48.8998 93.3227C49.4898 92.7898 49.8794 92.0711 50.0039 91.2862C50.1283 90.5013 49.9801 89.6975 49.5839 89.0084ZM47.545 90.3899C47.5517 90.431 47.5493 90.4687 47.545 90.3899V90.3899ZM47.3378 89.919C47.3298 89.9098 47.3308 89.9108 47.3378 89.919V89.919ZM46.4243 90.286C46.4121 90.2672 46.4109 90.2641 46.4243 90.286V90.286ZM46.6408 90.4695C46.6924 90.487 46.672 90.4833 46.6408 90.4695V90.4695ZM46.7375 90.5155L46.7589 90.5057C46.7537 90.5062 46.7484 90.5051 46.7438 90.5027L46.7444 90.5026L46.7612 90.5047L46.7643 90.5032L46.7546 90.501C46.763 90.5007 46.764 90.5019 46.7646 90.5032C46.8614 90.4589 46.7958 90.4802 46.7397 90.4976L46.7359 90.4967C46.7009 90.4789 46.6632 90.4668 46.6243 90.4609C46.6207 90.4589 46.6165 90.4574 46.6135 90.4553C46.5823 90.4331 46.4248 90.3101 46.5709 90.4391C46.5391 90.411 46.5077 90.3834 46.4778 90.3531C46.4601 90.335 46.4442 90.3154 46.43 90.2945C46.4108 90.2616 46.3923 90.2285 46.3742 90.195L46.3715 90.177C46.3691 90.162 46.3674 90.1558 46.3654 90.1468C46.3663 90.1375 46.3678 90.1275 46.3692 90.1178C46.3802 90.0885 46.3871 90.058 46.3899 90.0269L46.3962 90.0189C46.4196 89.9863 46.4401 89.9483 46.4624 89.9144C46.3444 90.0935 46.5085 89.8946 46.5208 89.8695C46.5229 89.8652 46.5192 89.8675 46.5201 89.8645C46.5249 89.8619 46.5234 89.8637 46.5292 89.8603C46.5658 89.8388 46.6004 89.8148 46.6375 89.7943C46.6817 89.7698 46.8559 89.7204 46.6753 89.772C46.7163 89.7602 46.7557 89.7454 46.7972 89.7346C46.8047 89.7327 46.8655 89.7242 46.8983 89.7183C46.927 89.7175 46.9549 89.7167 46.9579 89.7167C46.9714 89.7169 46.9849 89.7185 46.9984 89.7191C46.9684 89.7231 47.1013 89.7518 47.1407 89.7579C47.1464 89.7624 47.1493 89.7652 47.1571 89.7709C47.1905 89.7953 47.231 89.8169 47.2662 89.8396C47.1088 89.738 47.2683 89.8477 47.2984 89.8778C47.3164 89.8957 47.3329 89.9149 47.3498 89.9338C47.3653 89.9518 47.3794 89.971 47.3918 89.9913C47.4176 90.0385 47.445 90.0864 47.4721 90.1329L47.4797 90.1448C47.4795 90.1463 47.4794 90.1479 47.4794 90.1494C47.4936 90.2248 47.5144 90.2988 47.5418 90.3705C47.5431 90.3766 47.5441 90.3827 47.5449 90.3889C47.5474 90.4302 47.5508 90.4714 47.5509 90.5129L47.5505 90.5213C47.4252 90.456 47.2861 90.4214 47.1447 90.4204C47.0033 90.4194 46.8638 90.452 46.7375 90.5155H46.7375Z" fill="#E6E6E6"/>
<path d="M46.7646 90.5039L46.7666 90.5049L46.7646 90.5039Z" fill="#E6E6E6"/>
<path d="M81.4916 75.3223L81.4893 75.3235L81.494 75.3223H81.4916Z" fill="#E6E6E6"/>
<path d="M84.3144 73.8248C83.9381 73.159 83.3379 72.648 82.6202 72.3826C81.9026 72.1172 81.1141 72.1146 80.3947 72.3752C80.0371 72.5056 79.7093 72.7064 79.4307 72.9656C79.1521 73.2248 78.9283 73.5372 78.7726 73.8844C78.7415 73.9581 78.7233 74.0357 78.6978 74.1113C78.6626 74.1683 78.6202 74.2198 78.5886 74.2794C78.2512 74.9512 78.1588 75.7196 78.3273 76.4522C78.4959 77.1848 78.9148 77.8357 79.5119 78.2929C80.1091 78.75 80.8471 78.9848 81.5988 78.9567C82.3505 78.9287 83.069 78.6395 83.6303 78.1391C84.2203 77.6062 84.6099 76.8875 84.7343 76.1026C84.8588 75.3177 84.7106 74.5139 84.3144 73.8248ZM82.2755 75.2063C82.2822 75.2474 82.2797 75.2851 82.2755 75.2063V75.2063ZM82.0682 74.7354C82.0603 74.7262 82.0613 74.7272 82.0682 74.7354V74.7354ZM81.1548 75.1024C81.1425 75.0836 81.1413 75.0805 81.1548 75.1024V75.1024ZM81.3713 75.2859C81.4228 75.3034 81.4024 75.2997 81.3713 75.2859V75.2859ZM81.468 75.3319L81.4894 75.3221C81.4841 75.3226 81.4788 75.3216 81.4742 75.3191L81.4748 75.319L81.4916 75.3211L81.4947 75.3196L81.485 75.3174C81.4935 75.3171 81.4944 75.3183 81.495 75.3196C81.5918 75.2752 81.5263 75.2966 81.4701 75.314L81.4664 75.3131C81.4313 75.2953 81.3936 75.2832 81.3547 75.2773C81.3512 75.2753 81.3469 75.2738 81.3439 75.2717C81.3127 75.2495 81.1552 75.1265 81.3013 75.2555C81.2695 75.2274 81.2381 75.1998 81.2082 75.1695C81.1906 75.1514 81.1746 75.1318 81.1604 75.1109C81.1413 75.078 81.1227 75.0449 81.1047 75.0114L81.102 74.9934C81.0996 74.9784 81.0978 74.9722 81.0958 74.9632C81.0967 74.9539 81.0982 74.9439 81.0997 74.9342C81.1106 74.9049 81.1175 74.8744 81.1203 74.8433L81.1266 74.8353C81.15 74.8027 81.1705 74.7647 81.1928 74.7308C81.0748 74.9099 81.2389 74.711 81.2512 74.6859C81.2533 74.6816 81.2497 74.6839 81.2505 74.6809C81.2553 74.6783 81.2539 74.6801 81.2596 74.6767C81.2962 74.6552 81.3308 74.6312 81.368 74.6107C81.4122 74.5862 81.5864 74.5368 81.4057 74.5884C81.4468 74.5766 81.4861 74.5618 81.5276 74.551C81.5351 74.5491 81.5959 74.5406 81.6287 74.5347C81.6575 74.5339 81.6854 74.5331 81.6883 74.5331C81.7018 74.5333 81.7153 74.5349 81.7288 74.5355C81.6989 74.5395 81.8317 74.5682 81.8712 74.5743C81.8769 74.5788 81.8798 74.5816 81.8875 74.5873C81.9209 74.6117 81.9615 74.6333 81.9967 74.656C81.8392 74.5544 81.9987 74.6641 82.0288 74.6942C82.0468 74.7121 82.0633 74.7313 82.0803 74.7502C82.0958 74.7682 82.1098 74.7874 82.1222 74.8077C82.148 74.8549 82.1755 74.9028 82.2026 74.9493L82.2101 74.9612C82.2099 74.9627 82.2099 74.9643 82.2099 74.9658C82.224 75.0412 82.2449 75.1152 82.2722 75.1869C82.2735 75.193 82.2746 75.1991 82.2753 75.2053C82.2778 75.2466 82.2813 75.2878 82.2813 75.3293L82.281 75.3377C82.1556 75.2724 82.0165 75.2378 81.8752 75.2368C81.7338 75.2358 81.5942 75.2684 81.468 75.3319Z" fill="#E6E6E6"/>
<path d="M81.4951 75.3203L81.4971 75.3213L81.4951 75.3203Z" fill="#E6E6E6"/>
<path d="M115.14 82.9121L115.142 82.9131L115.14 82.9121Z" fill="#E6E6E6"/>
<path d="M117.959 58.6432C117.583 57.9774 116.982 57.4664 116.265 57.201C115.547 56.9356 114.759 56.9329 114.039 57.1936C113.682 57.324 113.354 57.5248 113.075 57.784C112.797 58.0432 112.573 58.3556 112.417 58.7027C112.386 58.7765 112.368 58.8541 112.342 58.9297C112.307 58.9867 112.265 59.0381 112.233 59.0977C111.896 59.7696 111.803 60.538 111.972 61.2706C112.14 62.0032 112.559 62.6541 113.156 63.1112C113.754 63.5684 114.492 63.8032 115.243 63.7751C115.995 63.747 116.713 63.4579 117.275 62.9575C117.865 62.4246 118.254 61.7059 118.379 60.921C118.503 60.1361 118.355 59.3322 117.959 58.6432ZM115.92 60.0247C115.927 60.0657 115.924 60.1035 115.92 60.0247V60.0247ZM115.713 59.5538C115.705 59.5446 115.706 59.5456 115.713 59.5538V59.5538ZM114.799 59.9208C114.787 59.902 114.786 59.8988 114.799 59.9208V59.9208ZM115.016 60.1042C115.067 60.1218 115.047 60.1181 115.016 60.1042V60.1042ZM115.112 60.1503L115.134 60.1405C115.129 60.1409 115.123 60.1399 115.119 60.1375L115.119 60.1373L115.136 60.1394L115.139 60.138L115.13 60.1358C115.138 60.1355 115.139 60.1366 115.14 60.1379C115.236 60.0936 115.171 60.1149 115.115 60.1323L115.111 60.1314C115.076 60.1137 115.038 60.1016 114.999 60.0957C114.996 60.0936 114.991 60.0922 114.988 60.09C114.957 60.0679 114.8 59.9449 114.946 60.0738C114.914 60.0457 114.883 60.0182 114.853 59.9879C114.835 59.9698 114.819 59.9502 114.805 59.9292C114.786 59.8964 114.767 59.8632 114.749 59.8298L114.746 59.8118C114.744 59.7968 114.742 59.7905 114.74 59.7815C114.741 59.7722 114.743 59.7622 114.744 59.7525C114.755 59.7233 114.762 59.6927 114.765 59.6616L114.771 59.6537C114.795 59.6211 114.815 59.5831 114.837 59.5492C114.719 59.7282 114.883 59.5294 114.896 59.5042C114.898 59.4999 114.894 59.5023 114.895 59.4993C114.9 59.4966 114.898 59.4985 114.904 59.4951C114.941 59.4736 114.975 59.4496 115.012 59.429C115.057 59.4045 115.231 59.3551 115.05 59.4067C115.091 59.395 115.131 59.3802 115.172 59.3694C115.18 59.3674 115.24 59.3589 115.273 59.353C115.302 59.3523 115.33 59.3514 115.333 59.3515C115.346 59.3516 115.36 59.3533 115.373 59.3539C115.343 59.3579 115.476 59.3866 115.516 59.3927C115.521 59.3971 115.524 59.4 115.532 59.4057C115.565 59.43 115.606 59.4517 115.641 59.4744C115.484 59.3727 115.643 59.4825 115.673 59.5125C115.691 59.5305 115.708 59.5497 115.725 59.5686C115.74 59.5866 115.754 59.6058 115.767 59.626C115.793 59.6733 115.82 59.7211 115.847 59.7676L115.855 59.7796C115.854 59.7811 115.854 59.7826 115.854 59.7842C115.869 59.8596 115.889 59.9336 115.917 60.0053C115.918 60.0113 115.919 60.0175 115.92 60.0237C115.922 60.065 115.926 60.1061 115.926 60.1477L115.926 60.1561C115.8 60.0908 115.661 60.0562 115.52 60.0552C115.378 60.0542 115.239 60.0868 115.112 60.1503Z" fill="#E6E6E6"/>
<path d="M115.137 82.9141L115.134 82.9153L115.139 82.9141H115.137Z" fill="#E6E6E6"/>
<path d="M152.146 100.397C151.77 99.7313 151.17 99.2203 150.452 98.9549C149.735 98.6895 148.946 98.6869 148.227 98.9475C147.869 99.0779 147.541 99.2787 147.263 99.5379C146.984 99.7971 146.76 100.11 146.605 100.457C146.574 100.53 146.555 100.608 146.53 100.684C146.495 100.741 146.452 100.792 146.421 100.852C146.083 101.523 145.991 102.292 146.159 103.024C146.328 103.757 146.747 104.408 147.344 104.865C147.941 105.322 148.679 105.557 149.431 105.529C150.183 105.501 150.901 105.212 151.462 104.711C152.052 104.178 152.442 103.46 152.566 102.675C152.691 101.89 152.543 101.086 152.146 100.397ZM150.108 101.779C150.114 101.82 150.112 101.857 150.108 101.779V101.779ZM149.9 101.308C149.892 101.298 149.893 101.299 149.9 101.308V101.308ZM148.987 101.675C148.975 101.656 148.973 101.653 148.987 101.675V101.675ZM149.203 101.858C149.255 101.876 149.234 101.872 149.203 101.858V101.858ZM149.3 101.904L149.321 101.894C149.316 101.895 149.311 101.894 149.306 101.891L149.307 101.891L149.324 101.893L149.327 101.892L149.317 101.89C149.325 101.889 149.326 101.891 149.327 101.892C149.424 101.848 149.358 101.869 149.302 101.886L149.298 101.885C149.263 101.868 149.226 101.855 149.187 101.85C149.183 101.848 149.179 101.846 149.176 101.844C149.145 101.822 148.987 101.699 149.133 101.828C149.102 101.8 149.07 101.772 149.04 101.742C149.023 101.724 149.007 101.704 148.992 101.683C148.973 101.65 148.955 101.617 148.937 101.584L148.934 101.566C148.932 101.551 148.93 101.544 148.928 101.535C148.929 101.526 148.93 101.516 148.932 101.506C148.943 101.477 148.95 101.447 148.952 101.416L148.959 101.408C148.982 101.375 149.003 101.337 149.025 101.303C148.907 101.482 149.071 101.283 149.083 101.258C149.085 101.254 149.082 101.256 149.083 101.253C149.087 101.251 149.086 101.252 149.092 101.249C149.128 101.227 149.163 101.203 149.2 101.183C149.244 101.158 149.418 101.109 149.238 101.161C149.279 101.149 149.318 101.134 149.36 101.123C149.367 101.121 149.428 101.113 149.461 101.107C149.489 101.106 149.517 101.105 149.52 101.105C149.534 101.106 149.547 101.107 149.561 101.108C149.531 101.112 149.664 101.141 149.703 101.147C149.709 101.151 149.712 101.154 149.72 101.16C149.753 101.184 149.793 101.206 149.829 101.228C149.671 101.127 149.831 101.236 149.861 101.266C149.879 101.284 149.895 101.304 149.912 101.322C149.928 101.34 149.942 101.36 149.954 101.38C149.98 101.427 150.007 101.475 150.035 101.522L150.042 101.533C150.042 101.535 150.042 101.537 150.042 101.538C150.056 101.613 150.077 101.687 150.104 101.759C150.106 101.765 150.107 101.771 150.107 101.778C150.11 101.819 150.113 101.86 150.113 101.902L150.113 101.91C149.988 101.845 149.849 101.81 149.707 101.809C149.566 101.808 149.426 101.841 149.3 101.904Z" fill="#E6E6E6"/>
<path d="M149.324 66.1035L149.322 66.1047L149.327 66.1035H149.324Z" fill="#E6E6E6"/>
<path d="M149.327 66.1016L149.329 66.1026L149.327 66.1016Z" fill="#E6E6E6"/>
<path d="M184.164 75.4518C183.787 74.786 183.187 74.275 182.469 74.0096C181.752 73.7442 180.963 73.7415 180.244 74.0022C179.886 74.1326 179.558 74.3333 179.28 74.5926C179.001 74.8518 178.777 75.1642 178.622 75.5113C178.591 75.5851 178.572 75.6627 178.547 75.7383C178.512 75.7953 178.469 75.8467 178.438 75.9063C178.1 76.5782 178.008 77.3466 178.176 78.0792C178.345 78.8118 178.764 79.4627 179.361 79.9198C179.958 80.377 180.696 80.6117 181.448 80.5837C182.2 80.5556 182.918 80.2665 183.479 79.7661C184.069 79.2332 184.459 78.5145 184.583 77.7296C184.708 76.9447 184.56 76.1408 184.164 75.4518ZM182.125 76.8332C182.131 76.8743 182.129 76.912 182.125 76.8332V76.8332ZM181.917 76.3623C181.909 76.3532 181.91 76.3542 181.917 76.3623V76.3623ZM181.004 76.7294C180.992 76.7106 180.99 76.7074 181.004 76.7294V76.7294ZM181.22 76.9128C181.272 76.9304 181.252 76.9267 181.22 76.9128V76.9128ZM181.317 76.9589L181.339 76.9491C181.333 76.9495 181.328 76.9485 181.323 76.9461L181.324 76.9459L181.341 76.948L181.344 76.9466L181.334 76.9444C181.343 76.9441 181.344 76.9452 181.344 76.9465C181.441 76.9022 181.375 76.9235 181.319 76.9409L181.315 76.94C181.28 76.9222 181.243 76.9102 181.204 76.9043C181.2 76.9022 181.196 76.9008 181.193 76.8986C181.162 76.8765 181.004 76.7535 181.15 76.8824C181.119 76.8543 181.087 76.8268 181.057 76.7965C181.04 76.7784 181.024 76.7588 181.01 76.7378C180.99 76.705 180.972 76.6718 180.954 76.6384L180.951 76.6204C180.949 76.6054 180.947 76.5991 180.945 76.5901C180.946 76.5808 180.947 76.5708 180.949 76.5611C180.96 76.5319 180.967 76.5013 180.969 76.4702L180.976 76.4623C180.999 76.4297 181.02 76.3917 181.042 76.3578C180.924 76.5368 181.088 76.338 181.1 76.3128C181.102 76.3085 181.099 76.3109 181.1 76.3079C181.104 76.3052 181.103 76.3071 181.109 76.3037C181.145 76.2822 181.18 76.2582 181.217 76.2376C181.261 76.2131 181.435 76.1637 181.255 76.2153C181.296 76.2036 181.335 76.1888 181.377 76.178C181.384 76.176 181.445 76.1675 181.478 76.1616C181.507 76.1609 181.534 76.16 181.537 76.1601C181.551 76.1602 181.564 76.1619 181.578 76.1625C181.548 76.1665 181.681 76.1952 181.72 76.2012C181.726 76.2057 181.729 76.2086 181.737 76.2143C181.77 76.2386 181.811 76.2603 181.846 76.283C181.688 76.1813 181.848 76.2911 181.878 76.3211C181.896 76.3391 181.912 76.3583 181.929 76.3772C181.945 76.3952 181.959 76.4144 181.971 76.4346C181.997 76.4819 182.025 76.5297 182.052 76.5762L182.059 76.5881C182.059 76.5897 182.059 76.5912 182.059 76.5928C182.073 76.6682 182.094 76.7422 182.121 76.8139C182.123 76.8199 182.124 76.8261 182.124 76.8323C182.127 76.8736 182.13 76.9147 182.13 76.9563L182.13 76.9647C182.005 76.8994 181.866 76.8648 181.724 76.8638C181.583 76.8628 181.443 76.8954 181.317 76.9589Z" fill="#E6E6E6"/>
<path d="M181.341 76.9492L181.339 76.9504L181.344 76.9492H181.341Z" fill="#E6E6E6"/>
<path d="M181.344 76.9473L181.346 76.9483L181.344 76.9473Z" fill="#E6E6E6"/>
<path d="M172.567 101.8L147.335 103.201C147.193 103.209 147.053 103.162 146.945 103.07C146.836 102.978 146.767 102.848 146.751 102.707C146.736 102.565 146.775 102.423 146.862 102.31C146.948 102.197 147.074 102.121 147.215 102.098L173.005 97.9043L172.567 101.8Z" fill="#3F3D56"/>
<path d="M204.633 157.932L214.141 141.947L221.169 145.264C221.169 145.264 209.06 160.378 208.674 160.812C208.839 161.547 208.777 162.314 208.496 163.013C208.216 163.712 207.729 164.309 207.101 164.725C206.474 165.142 205.734 165.358 204.981 165.345C204.227 165.333 203.496 165.092 202.882 164.655C202.269 164.217 201.803 163.604 201.546 162.897C201.289 162.189 201.252 161.42 201.442 160.691C201.632 159.962 202.039 159.309 202.608 158.816C203.178 158.323 203.884 158.015 204.633 157.932Z" fill="#FFD0B6"/>
<path d="M208.588 120.801L223.993 128.832C224.956 129.525 225.763 130.411 226.364 131.434C226.964 132.456 227.344 133.593 227.48 134.771C227.616 135.948 227.505 137.142 227.153 138.274C226.801 139.406 226.216 140.453 225.437 141.346L214.817 153.52L210.19 147.255L213.756 139.805L206.852 137.985L208.588 120.801Z" fill="#E35A33"/>
<path d="M164.689 102.061L162.954 120.576L155.182 120.589C155.182 120.589 159.641 101.747 159.803 101.189C159.339 100.596 159.066 99.8765 159.02 99.125C158.974 98.3734 159.157 97.6257 159.546 96.9806C159.934 96.3355 160.51 95.8234 161.196 95.5122C161.882 95.201 162.646 95.1052 163.388 95.2376C164.13 95.37 164.814 95.7243 165.35 96.2536C165.886 96.7829 166.248 97.4623 166.389 98.2019C166.53 98.9415 166.443 99.7065 166.14 100.396C165.836 101.085 165.33 101.666 164.689 102.061V102.061Z" fill="#FFD0B6"/>
<path d="M180.16 139.922L162.271 136.644C154.738 135.738 151.647 130.786 153.006 125.955L157.38 110.408L164.247 114.087L164.221 122.346L173.833 121.033L180.16 139.922Z" fill="#E35A33"/>
<path d="M172.837 267.87H167.919L165.579 248.912H172.838L172.837 267.87Z" fill="#FFD0B6"/>
<path d="M173.011 272.997L157.885 272.997V272.806C157.885 271.245 158.506 269.749 159.61 268.646C160.714 267.543 162.211 266.923 163.773 266.923H163.773L166.536 264.828L171.691 266.923L173.011 266.923L173.011 272.997Z" fill="#2F2E41"/>
<path d="M207.641 267.87H212.559L214.899 248.912H207.64L207.641 267.87Z" fill="#FFD0B6"/>
<path d="M207.468 272.997L222.593 272.997V272.806C222.593 271.245 221.973 269.749 220.869 268.646C219.765 267.543 218.267 266.923 216.706 266.923H216.706L213.943 264.828L208.788 266.923L207.467 266.923L207.468 272.997Z" fill="#2F2E41"/>
<path d="M165.362 234.981C165.435 233.9 166.013 227.917 166.013 227.917L167.396 215.23L169.835 181.598L172.008 172.758L182.767 176.946L191.496 172.764L201.873 176.078L209.952 179.106C209.952 179.106 209.966 180.402 210.028 181.968C210.111 184.017 210.256 186.53 210.602 187.183C211.18 188.337 211.035 194.534 211.035 194.534C211.035 194.534 211.609 207.142 212.332 208.525C213.054 209.907 213.2 212.786 212.982 213.363C212.764 213.94 213.705 229.082 213.705 229.082C213.705 229.082 216.119 255.876 214.604 259.916C213.089 263.957 207.365 261.31 207.365 261.31C207.365 261.31 207.642 260.232 205.981 259.724C204.321 259.216 199.265 221.222 199.265 221.222C199.265 221.222 198.324 213.432 197.459 211.2C196.595 208.967 195.799 202.694 195.799 202.694C195.799 202.694 190.459 192.312 190.39 190.003C190.39 190.003 189.691 187.843 189.03 190.221C188.37 192.599 186.423 198.294 186.423 198.294L184.524 205.29L182.289 215.741L180.844 224.54C180.844 224.54 178.678 236.219 178.333 236.723C177.987 237.228 178.333 247.897 178.333 247.897C178.333 247.897 176.659 256.983 174.293 258.569C171.927 260.156 165.659 258.595 165.659 258.595C165.659 258.595 165.29 236.063 165.362 234.981Z" fill="#2F2E41"/>
<path d="M173.405 144.311L172.03 162.107L169.965 164.243C169.778 164.436 169.633 164.664 169.537 164.914C169.441 165.164 169.397 165.431 169.407 165.699C169.416 165.966 169.48 166.229 169.594 166.472C169.708 166.714 169.869 166.931 170.069 167.11L168.931 169.059L168.528 175.203C168.413 175.681 168.405 176.179 168.505 176.66C168.605 177.142 168.81 177.595 169.105 177.988C169.401 178.381 169.779 178.705 170.214 178.935C170.649 179.165 171.129 179.296 171.621 179.319L207.237 180.991C207.725 181.014 208.213 180.929 208.666 180.743C209.118 180.557 209.524 180.274 209.855 179.914C210.186 179.554 210.434 179.125 210.581 178.659C210.728 178.193 210.771 177.7 210.706 177.216L207.678 154.433V152.73L206.322 149.44L207.019 138.419L208.64 120.926L199.218 118.495L194.109 114.982L185.234 115.124L179.849 119.543L172.669 120.667L167.239 121.745L166.547 123.248L167.93 122.947L172.945 142.491L173.405 144.311Z" fill="#E35A33"/>
<path d="M189.473 112.599C195.247 112.599 199.928 107.922 199.928 102.152C199.928 96.3824 195.247 91.7051 189.473 91.7051C183.699 91.7051 179.019 96.3824 179.019 102.152C179.019 107.922 183.699 112.599 189.473 112.599Z" fill="#FFD0B6"/>
<path d="M186.953 111.924L194.507 111.539C195.475 111.489 196.531 111.404 197.235 110.738C197.614 110.327 197.905 109.844 198.091 109.317C198.789 107.696 199.488 106.075 200.168 104.447C201.11 102.194 202.034 99.8158 201.794 97.3867C201.737 96.2774 201.272 95.2282 200.487 94.4417C200.086 94.0628 199.571 93.8271 199.022 93.7715C198.474 93.7159 197.922 93.8436 197.453 94.1346C197.337 93.3662 197.047 92.6344 196.606 91.9944C196.165 91.3544 195.584 90.8231 194.907 90.4405C193.54 89.6858 191.979 89.3552 190.424 89.4906C188.166 89.636 186.011 90.4848 184.261 91.9176C183.769 92.3713 183.243 92.7875 182.689 93.1625C182.41 93.3489 182.096 93.4764 181.766 93.5374C181.436 93.5984 181.097 93.5916 180.77 93.5173C180.446 93.4307 180.164 93.2299 179.977 92.9519C179.79 92.6738 179.709 92.3374 179.751 92.0048C179.219 92.4023 178.854 92.9835 178.728 93.6352C178.601 94.2868 178.722 94.9621 179.067 95.5294C178.675 95.6935 178.247 95.7536 177.825 95.7037C177.403 95.6537 177.001 95.4956 176.658 95.2445C176.29 95.4267 175.965 95.6836 175.703 95.9987C175.44 96.3137 175.247 96.6801 175.134 97.0743C175.022 97.4684 174.993 97.8817 175.05 98.2876C175.106 98.6936 175.247 99.0833 175.463 99.4317C175.679 99.7801 175.966 100.08 176.304 100.311C176.643 100.542 177.026 100.701 177.429 100.775C177.832 100.85 178.247 100.84 178.646 100.746C179.045 100.651 179.42 100.475 179.747 100.227C180.206 100.869 180.035 101.741 179.975 102.527C179.915 103.313 180.126 104.29 180.885 104.507C181.91 104.801 182.741 103.421 183.807 103.436C184.07 103.457 184.324 103.543 184.546 103.686C184.768 103.829 184.951 104.024 185.079 104.255C185.33 104.718 185.502 105.22 185.588 105.74L186.953 111.881" fill="#2F2E41"/>
<path d="M481.478 205.861C481.478 204.243 480.934 202.93 480.267 202.927H298.289C297.619 202.93 297.078 204.243 297.075 205.861V272.455C297.075 272.605 297.019 272.75 296.918 272.861C296.817 272.973 296.678 273.042 296.529 273.057C296.04 273.104 295.552 273.147 295.063 273.188C295.051 273.188 295.039 273.191 295.027 273.191C294.761 273.215 294.495 273.233 294.23 273.254H294.227C294.09 273.001 293.955 272.747 293.821 272.49C293.776 272.403 293.752 272.307 293.752 272.209V202.055C293.752 201.608 293.771 201.158 293.801 200.715C293.844 200.106 293.919 199.499 294.027 198.898C294.538 196.094 295.692 194.195 297.002 194.189H481.551C481.742 194.191 481.931 194.231 482.106 194.307C482.364 194.421 482.597 194.584 482.792 194.787C483.057 195.062 483.283 195.372 483.466 195.708C484.218 197.205 484.651 198.842 484.737 200.516C484.737 200.534 484.74 200.552 484.74 200.57C484.782 201.059 484.804 201.557 484.801 202.055L484.843 208.523L484.87 212.38L484.952 224.483L484.982 228.781L485.115 272.907C485.115 273.067 485.051 273.22 484.938 273.334C484.824 273.447 484.671 273.51 484.511 273.51H482.082C481.922 273.51 481.768 273.447 481.655 273.334C481.542 273.22 481.478 273.067 481.478 272.907V205.861Z" fill="#E6E6E6"/>
<path d="M432.029 163.924H412.421C412.143 163.924 411.877 164.035 411.681 164.231C411.486 164.427 411.376 164.693 411.376 164.97V195.923H433.076V164.97C433.076 164.833 433.049 164.697 432.997 164.57C432.944 164.443 432.867 164.327 432.77 164.23C432.672 164.133 432.557 164.056 432.43 164.003C432.303 163.951 432.167 163.924 432.029 163.924ZM422.291 181.511C421.678 181.508 421.09 181.263 420.657 180.83C420.223 180.397 419.978 179.81 419.975 179.197V175.627C419.975 175.013 420.219 174.425 420.654 173.991C421.088 173.557 421.677 173.313 422.291 173.313C422.905 173.313 423.494 173.557 423.928 173.991C424.362 174.425 424.606 175.013 424.606 175.627V179.197C424.603 179.81 424.358 180.397 423.925 180.83C423.491 181.263 422.904 181.508 422.291 181.511Z" fill="#CCCCCC"/>
<path d="M411.309 194.934V197.92C411.309 198.075 411.371 198.223 411.48 198.332C411.59 198.442 411.738 198.503 411.893 198.504H432.559C432.714 198.503 432.862 198.441 432.972 198.332C433.081 198.223 433.143 198.074 433.144 197.92V194.934H411.309Z" fill="#3F3D56"/>
<path d="M464.498 115.619H380.68C379.96 115.62 379.27 115.907 378.76 116.415C378.251 116.924 377.965 117.614 377.963 118.334V174.853C377.964 175.573 378.251 176.263 378.76 176.771C379.269 177.28 379.96 177.567 380.68 177.567H464.498C465.219 177.567 465.909 177.28 466.419 176.771C466.928 176.263 467.214 175.573 467.215 174.853V118.334C467.214 117.614 466.927 116.924 466.418 116.415C465.909 115.907 465.218 115.62 464.498 115.619Z" fill="#E6E6E6"/>
<path d="M463.799 117.58H381.381C380.995 117.581 380.625 117.735 380.353 118.007C380.081 118.28 379.928 118.65 379.928 119.035V174.153C379.928 174.538 380.082 174.907 380.354 175.179C380.626 175.451 380.995 175.604 381.381 175.605H463.799C464.184 175.604 464.553 175.451 464.826 175.179C465.098 174.907 465.251 174.538 465.252 174.153V119.035C465.252 118.65 465.099 118.28 464.826 118.007C464.554 117.735 464.185 117.581 463.799 117.58Z" fill="white"/>
<path d="M447.745 199.542H398.711C398.576 199.542 398.444 199.513 398.323 199.455C398.202 199.397 398.095 199.313 398.01 199.209C397.926 199.105 397.865 198.983 397.834 198.853C397.802 198.722 397.8 198.587 397.828 198.455L398.589 194.845C398.632 194.643 398.743 194.461 398.904 194.331C399.064 194.201 399.265 194.13 399.471 194.129H446.984C447.191 194.13 447.391 194.201 447.552 194.331C447.712 194.461 447.824 194.643 447.867 194.845L448.628 198.455C448.655 198.587 448.653 198.722 448.622 198.853C448.59 198.983 448.53 199.105 448.446 199.209C448.361 199.313 448.254 199.397 448.133 199.455C448.012 199.513 447.879 199.542 447.745 199.542Z" fill="#CCCCCC"/>
<path d="M401.065 194.779H400.085C399.938 194.779 399.82 194.898 399.82 195.044V195.42C399.82 195.566 399.938 195.685 400.085 195.685H401.065C401.211 195.685 401.33 195.566 401.33 195.42V195.044C401.33 194.898 401.211 194.779 401.065 194.779Z" fill="#E6E6E6"/>
<path d="M404.085 194.779H403.105C402.958 194.779 402.84 194.898 402.84 195.044V195.42C402.84 195.566 402.958 195.685 403.105 195.685H404.085C404.231 195.685 404.35 195.566 404.35 195.42V195.044C404.35 194.898 404.231 194.779 404.085 194.779Z" fill="#E6E6E6"/>
<path d="M407.106 194.779H406.125C405.979 194.779 405.86 194.898 405.86 195.044V195.42C405.86 195.566 405.979 195.685 406.125 195.685H407.106C407.252 195.685 407.371 195.566 407.371 195.42V195.044C407.371 194.898 407.252 194.779 407.106 194.779Z" fill="#E6E6E6"/>
<path d="M410.126 194.779H409.146C408.999 194.779 408.881 194.898 408.881 195.044V195.42C408.881 195.566 408.999 195.685 409.146 195.685H410.126C410.272 195.685 410.391 195.566 410.391 195.42V195.044C410.391 194.898 410.272 194.779 410.126 194.779Z" fill="#E6E6E6"/>
<path d="M413.147 194.779H412.166C412.02 194.779 411.901 194.898 411.901 195.044V195.42C411.901 195.566 412.02 195.685 412.166 195.685H413.147C413.293 195.685 413.412 195.566 413.412 195.42V195.044C413.412 194.898 413.293 194.779 413.147 194.779Z" fill="#E6E6E6"/>
<path d="M416.167 194.779H415.187C415.04 194.779 414.922 194.898 414.922 195.044V195.42C414.922 195.566 415.04 195.685 415.187 195.685H416.167C416.313 195.685 416.432 195.566 416.432 195.42V195.044C416.432 194.898 416.313 194.779 416.167 194.779Z" fill="#E6E6E6"/>
<path d="M419.188 194.779H418.207C418.061 194.779 417.942 194.898 417.942 195.044V195.42C417.942 195.566 418.061 195.685 418.207 195.685H419.188C419.334 195.685 419.453 195.566 419.453 195.42V195.044C419.453 194.898 419.334 194.779 419.188 194.779Z" fill="#E6E6E6"/>
<path d="M422.208 194.779H421.228C421.081 194.779 420.963 194.898 420.963 195.044V195.42C420.963 195.566 421.081 195.685 421.228 195.685H422.208C422.354 195.685 422.473 195.566 422.473 195.42V195.044C422.473 194.898 422.354 194.779 422.208 194.779Z" fill="#E6E6E6"/>
<path d="M425.228 194.779H424.248C424.102 194.779 423.983 194.898 423.983 195.044V195.42C423.983 195.566 424.102 195.685 424.248 195.685H425.228C425.375 195.685 425.493 195.566 425.493 195.42V195.044C425.493 194.898 425.375 194.779 425.228 194.779Z" fill="#E6E6E6"/>
<path d="M428.249 194.779H427.268C427.122 194.779 427.003 194.898 427.003 195.044V195.42C427.003 195.566 427.122 195.685 427.268 195.685H428.249C428.395 195.685 428.514 195.566 428.514 195.42V195.044C428.514 194.898 428.395 194.779 428.249 194.779Z" fill="#E6E6E6"/>
<path d="M431.269 194.779H430.289C430.143 194.779 430.024 194.898 430.024 195.044V195.42C430.024 195.566 430.143 195.685 430.289 195.685H431.269C431.416 195.685 431.534 195.566 431.534 195.42V195.044C431.534 194.898 431.416 194.779 431.269 194.779Z" fill="#E6E6E6"/>
<path d="M434.29 194.779H433.309C433.163 194.779 433.044 194.898 433.044 195.044V195.42C433.044 195.566 433.163 195.685 433.309 195.685H434.29C434.436 195.685 434.555 195.566 434.555 195.42V195.044C434.555 194.898 434.436 194.779 434.29 194.779Z" fill="#E6E6E6"/>
<path d="M437.31 194.779H436.33C436.184 194.779 436.065 194.898 436.065 195.044V195.42C436.065 195.566 436.184 195.685 436.33 195.685H437.31C437.457 195.685 437.575 195.566 437.575 195.42V195.044C437.575 194.898 437.457 194.779 437.31 194.779Z" fill="#E6E6E6"/>
<path d="M440.33 194.779H439.35C439.204 194.779 439.085 194.898 439.085 195.044V195.42C439.085 195.566 439.204 195.685 439.35 195.685H440.33C440.477 195.685 440.595 195.566 440.595 195.42V195.044C440.595 194.898 440.477 194.779 440.33 194.779Z" fill="#E6E6E6"/>
<path d="M443.351 194.779H442.37C442.224 194.779 442.105 194.898 442.105 195.044V195.42C442.105 195.566 442.224 195.685 442.37 195.685H443.351C443.497 195.685 443.616 195.566 443.616 195.42V195.044C443.616 194.898 443.497 194.779 443.351 194.779Z" fill="#E6E6E6"/>
<path d="M446.371 194.779H445.391C445.245 194.779 445.126 194.898 445.126 195.044V195.42C445.126 195.566 445.245 195.685 445.391 195.685H446.371C446.518 195.685 446.636 195.566 446.636 195.42V195.044C446.636 194.898 446.518 194.779 446.371 194.779Z" fill="#E6E6E6"/>
<path d="M401.029 196.289H400.049C399.902 196.289 399.784 196.408 399.784 196.554V196.93C399.784 197.076 399.902 197.195 400.049 197.195H401.029C401.175 197.195 401.294 197.076 401.294 196.93V196.554C401.294 196.408 401.175 196.289 401.029 196.289Z" fill="#E6E6E6"/>
<path d="M404.049 196.289H403.069C402.923 196.289 402.804 196.408 402.804 196.554V196.93C402.804 197.076 402.923 197.195 403.069 197.195H404.049C404.196 197.195 404.314 197.076 404.314 196.93V196.554C404.314 196.408 404.196 196.289 404.049 196.289Z" fill="#E6E6E6"/>
<path d="M407.07 196.289H406.09C405.943 196.289 405.825 196.408 405.825 196.554V196.93C405.825 197.076 405.943 197.195 406.09 197.195H407.07C407.216 197.195 407.335 197.076 407.335 196.93V196.554C407.335 196.408 407.216 196.289 407.07 196.289Z" fill="#E6E6E6"/>
<path d="M410.091 196.289H409.11C408.964 196.289 408.845 196.408 408.845 196.554V196.93C408.845 197.076 408.964 197.195 409.11 197.195H410.091C410.237 197.195 410.355 197.076 410.355 196.93V196.554C410.355 196.408 410.237 196.289 410.091 196.289Z" fill="#E6E6E6"/>
<path d="M413.111 196.289H412.131C411.984 196.289 411.866 196.408 411.866 196.554V196.93C411.866 197.076 411.984 197.195 412.131 197.195H413.111C413.257 197.195 413.376 197.076 413.376 196.93V196.554C413.376 196.408 413.257 196.289 413.111 196.289Z" fill="#E6E6E6"/>
<path d="M416.132 196.289H415.151C415.005 196.289 414.886 196.408 414.886 196.554V196.93C414.886 197.076 415.005 197.195 415.151 197.195H416.132C416.278 197.195 416.396 197.076 416.396 196.93V196.554C416.396 196.408 416.278 196.289 416.132 196.289Z" fill="#E6E6E6"/>
<path d="M419.152 196.289H418.172C418.025 196.289 417.907 196.408 417.907 196.554V196.93C417.907 197.076 418.025 197.195 418.172 197.195H419.152C419.298 197.195 419.417 197.076 419.417 196.93V196.554C419.417 196.408 419.298 196.289 419.152 196.289Z" fill="#E6E6E6"/>
<path d="M422.172 196.289H421.192C421.045 196.289 420.927 196.408 420.927 196.554V196.93C420.927 197.076 421.045 197.195 421.192 197.195H422.172C422.318 197.195 422.437 197.076 422.437 196.93V196.554C422.437 196.408 422.318 196.289 422.172 196.289Z" fill="#E6E6E6"/>
<path d="M425.193 196.289H424.212C424.066 196.289 423.947 196.408 423.947 196.554V196.93C423.947 197.076 424.066 197.195 424.212 197.195H425.193C425.339 197.195 425.457 197.076 425.457 196.93V196.554C425.457 196.408 425.339 196.289 425.193 196.289Z" fill="#E6E6E6"/>
<path d="M428.213 196.289H427.233C427.086 196.289 426.968 196.408 426.968 196.554V196.93C426.968 197.076 427.086 197.195 427.233 197.195H428.213C428.359 197.195 428.478 197.076 428.478 196.93V196.554C428.478 196.408 428.359 196.289 428.213 196.289Z" fill="#E6E6E6"/>
<path d="M431.234 196.289H430.253C430.107 196.289 429.988 196.408 429.988 196.554V196.93C429.988 197.076 430.107 197.195 430.253 197.195H431.234C431.38 197.195 431.499 197.076 431.499 196.93V196.554C431.499 196.408 431.38 196.289 431.234 196.289Z" fill="#E6E6E6"/>
<path d="M434.254 196.289H433.274C433.127 196.289 433.009 196.408 433.009 196.554V196.93C433.009 197.076 433.127 197.195 433.274 197.195H434.254C434.4 197.195 434.519 197.076 434.519 196.93V196.554C434.519 196.408 434.4 196.289 434.254 196.289Z" fill="#E6E6E6"/>
<path d="M437.275 196.289H436.294C436.148 196.289 436.029 196.408 436.029 196.554V196.93C436.029 197.076 436.148 197.195 436.294 197.195H437.275C437.421 197.195 437.539 197.076 437.539 196.93V196.554C437.539 196.408 437.421 196.289 437.275 196.289Z" fill="#E6E6E6"/>
<path d="M440.295 196.289H439.314C439.168 196.289 439.049 196.408 439.049 196.554V196.93C439.049 197.076 439.168 197.195 439.314 197.195H440.295C440.441 197.195 440.56 197.076 440.56 196.93V196.554C440.56 196.408 440.441 196.289 440.295 196.289Z" fill="#E6E6E6"/>
<path d="M443.315 196.289H442.335C442.188 196.289 442.07 196.408 442.07 196.554V196.93C442.07 197.076 442.188 197.195 442.335 197.195H443.315C443.461 197.195 443.58 197.076 443.58 196.93V196.554C443.58 196.408 443.461 196.289 443.315 196.289Z" fill="#E6E6E6"/>
<path d="M446.336 196.289H445.355C445.209 196.289 445.09 196.408 445.09 196.554V196.93C445.09 197.076 445.209 197.195 445.355 197.195H446.336C446.482 197.195 446.601 197.076 446.601 196.93V196.554C446.601 196.408 446.482 196.289 446.336 196.289Z" fill="#E6E6E6"/>
<path d="M426.099 198.1H414.547C414.401 198.1 414.282 198.218 414.282 198.364V198.74C414.282 198.887 414.401 199.005 414.547 199.005H426.099C426.245 199.005 426.364 198.887 426.364 198.74V198.364C426.364 198.218 426.245 198.1 426.099 198.1Z" fill="#E6E6E6"/>
<path d="M459.656 125.173H382.537C382.457 125.172 382.381 125.139 382.325 125.081C382.269 125.024 382.237 124.947 382.237 124.867C382.237 124.787 382.269 124.71 382.325 124.653C382.381 124.595 382.457 124.562 382.537 124.561H459.656C459.736 124.562 459.812 124.595 459.868 124.653C459.924 124.71 459.956 124.787 459.956 124.867C459.956 124.947 459.924 125.024 459.868 125.081C459.812 125.139 459.736 125.172 459.656 125.173Z" fill="#CACACA"/>
<path d="M387.787 122.996C388.78 122.996 389.584 122.174 389.584 121.16C389.584 120.146 388.78 119.324 387.787 119.324C386.794 119.324 385.99 120.146 385.99 121.16C385.99 122.174 386.794 122.996 387.787 122.996Z" fill="#CCCCCC"/>
<path d="M393.996 122.996C394.988 122.996 395.793 122.174 395.793 121.16C395.793 120.146 394.988 119.324 393.996 119.324C393.003 119.324 392.198 120.146 392.198 121.16C392.198 122.174 393.003 122.996 393.996 122.996Z" fill="#CCCCCC"/>
<path d="M400.205 122.996C401.197 122.996 402.002 122.174 402.002 121.16C402.002 120.146 401.197 119.324 400.205 119.324C399.212 119.324 398.407 120.146 398.407 121.16C398.407 122.174 399.212 122.996 400.205 122.996Z" fill="#CCCCCC"/>
<path d="M455.918 119.779H451.507C451.42 119.781 451.336 119.817 451.275 119.879C451.214 119.942 451.18 120.026 451.18 120.113C451.18 120.2 451.214 120.284 451.275 120.347C451.336 120.409 451.42 120.445 451.507 120.447H455.918C456.005 120.445 456.088 120.409 456.149 120.347C456.211 120.284 456.245 120.2 456.245 120.113C456.245 120.026 456.211 119.942 456.149 119.879C456.088 119.817 456.005 119.781 455.918 119.779H455.918Z" fill="#CCCCCC"/>
<path d="M455.917 121.031H451.507C451.42 121.033 451.336 121.069 451.275 121.131C451.214 121.194 451.18 121.278 451.18 121.365C451.18 121.452 451.214 121.536 451.275 121.599C451.336 121.661 451.42 121.697 451.507 121.699H455.917C456.005 121.697 456.088 121.661 456.149 121.599C456.21 121.536 456.245 121.452 456.245 121.365C456.245 121.278 456.21 121.194 456.149 121.131C456.088 121.069 456.005 121.033 455.917 121.031H455.917Z" fill="#CCCCCC"/>
<path d="M455.918 122.283H451.507C451.42 122.285 451.336 122.321 451.275 122.383C451.214 122.446 451.18 122.53 451.18 122.617C451.18 122.704 451.214 122.788 451.275 122.851C451.336 122.913 451.42 122.949 451.507 122.951H455.918C456.005 122.949 456.088 122.913 456.149 122.851C456.211 122.788 456.245 122.704 456.245 122.617C456.245 122.53 456.211 122.446 456.149 122.383C456.088 122.321 456.005 122.285 455.918 122.283H455.918Z" fill="#CCCCCC"/>
<path d="M427.323 141.869H417.687C416.963 141.869 416.376 142.455 416.376 143.179C416.376 143.902 416.963 144.488 417.687 144.488H427.323C428.047 144.488 428.633 143.902 428.633 143.179C428.633 142.455 428.047 141.869 427.323 141.869Z" fill="#E35A33"/>
<path d="M433.548 147.107H411.461C410.738 147.107 410.151 147.694 410.151 148.417C410.151 149.14 410.738 149.727 411.461 149.727H433.548C434.272 149.727 434.859 149.14 434.859 148.417C434.859 147.694 434.272 147.107 433.548 147.107Z" fill="#E6E6E6"/>
<path d="M433.548 152.346H411.461C410.738 152.346 410.151 152.932 410.151 153.655C410.151 154.379 410.738 154.965 411.461 154.965H433.548C434.272 154.965 434.859 154.379 434.859 153.655C434.859 152.932 434.272 152.346 433.548 152.346Z" fill="#E6E6E6"/>
<path d="M284.747 233.955L280.305 231.832L286.407 213.277L292.964 216.411L284.747 233.955Z" fill="#FFD0B6"/>
<path d="M314.53 230.964C314.207 231.166 313.884 231.365 313.557 231.564C312.908 231.962 312.252 232.353 311.596 232.738C311.267 232.93 310.934 233.123 310.604 233.312V233.321L310.585 233.325L310.578 233.328L310.076 233.452L309.355 231.548L309.022 230.671L308.552 229.428L307.69 227.156L303.155 215.189L310.206 213.451L310.471 214.53H310.474L310.604 215.065L313.068 225.049L313.57 227.09L313.587 227.152L313.89 228.372L314.151 229.428L314.442 230.609L314.53 230.964Z" fill="#FFD0B6"/>
<path d="M356.594 188.94C356.147 189.657 355.69 190.371 355.23 191.079C354.375 192.396 353.498 193.694 352.597 194.972C352.597 194.975 352.594 194.975 352.591 194.979C352.065 195.465 351.485 195.888 350.861 196.24C350.835 196.26 350.806 196.273 350.78 196.289C350.32 196.543 349.832 196.739 349.324 196.873C349.142 196.919 348.956 196.964 348.773 197.01C348.114 197.166 347.461 197.3 346.812 197.418C345.657 197.623 344.514 197.77 343.379 197.861C343.288 197.871 343.196 197.877 343.105 197.884C338.435 198.226 333.89 197.675 329.145 196.772C326.803 196.328 324.411 195.797 321.934 195.246C321.125 195.063 320.312 194.884 319.49 194.705C319.428 194.692 319.363 194.675 319.298 194.662C318.123 194.405 316.929 194.15 315.705 193.899C314.165 193.583 312.576 193.277 310.925 192.986L311.042 195.311C311.14 197.1 311.512 198.862 312.145 200.538C312.85 202.599 313.408 204.229 312.23 207.623L311.662 209.267C311.956 210.083 312.057 210.956 311.957 211.817C311.857 212.679 311.558 213.506 311.084 214.233L310.97 214.405L315.705 226.375L316.012 227.151H313.587L310.605 227.155H305.55L298.257 212.534L297.908 211.836V211.8L298.662 183.703C298.672 183.456 298.691 183.204 298.724 182.957C298.857 181.83 299.213 180.741 299.772 179.754C300.33 178.766 301.08 177.9 301.977 177.205C302.837 176.533 303.822 176.039 304.874 175.752C305.927 175.464 307.026 175.388 308.109 175.529L310.605 175.852L315.705 176.51L319.298 176.977L319.369 176.986L329.964 178.356L330.725 175.258L330.865 175.206L335.326 173.573L350.753 167.922L350.793 167.909L351.807 167.537L351.928 167.733C351.964 167.791 352 167.85 352.033 167.909C353.036 169.706 353.852 171.6 354.47 173.563C355.509 176.769 356.364 180.032 357.032 183.335C357.061 183.478 357.087 183.609 357.11 183.726L357.12 183.762C357.129 183.817 357.136 183.853 357.139 183.863C357.445 185.573 357.256 187.334 356.594 188.94Z" fill="#2F2E41"/>
<path d="M357.245 178.586C357.196 178.377 357.134 178.165 357.069 177.96C356.551 176.404 355.948 174.878 355.261 173.388C354.491 171.693 353.568 169.876 352.468 167.91C351.936 166.958 351.364 165.968 350.752 164.94C350.445 164.425 350.126 163.9 349.796 163.365C349.783 163.34 349.769 163.316 349.753 163.293L349.659 163.137L334.394 165.178L328.71 165.938L328.371 168.768L328.289 169.469C328.286 169.469 328.286 169.469 328.289 169.472L328.061 171.383V171.386L327.757 173.91L327.731 173.907L319.296 172.814L310.603 171.689L305.934 171.086C304.852 170.945 303.752 171.021 302.7 171.309C301.647 171.596 300.662 172.09 299.803 172.762C298.905 173.457 298.156 174.324 297.597 175.311C297.039 176.299 296.682 177.387 296.549 178.514C296.52 178.742 296.5 178.977 296.491 179.208L292.085 189.639C289.449 195.877 287.771 202.477 287.106 209.216L283.875 219.536L284.336 219.578L291.181 220.214L292.989 220.384L296.97 214.577C297.424 213.915 297.854 213.233 298.256 212.535C298.917 211.396 299.504 210.215 300.015 209.001L308.626 188.524C309.291 188.638 309.951 188.747 310.603 188.85C313.622 189.339 316.519 189.738 319.296 190.047C328.325 191.054 336.143 191.133 343.103 190.278C345.058 190.04 346.947 189.727 348.771 189.339C349.44 189.199 350.1 189.048 350.752 188.886C350.905 188.85 351.055 188.814 351.205 188.775C352.554 188.428 353.794 187.748 354.811 186.797C355.829 185.847 356.592 184.657 357.03 183.336C357.553 181.806 357.628 180.157 357.245 178.586Z" fill="#2F2E41"/>
<path d="M286.167 230.926L281.36 228.624L280.606 228.262L279.402 231.216L270.997 233.065C270.581 233.156 270.205 233.377 269.925 233.697C269.644 234.016 269.473 234.417 269.437 234.841C269.4 235.264 269.5 235.688 269.722 236.051C269.944 236.414 270.276 236.696 270.67 236.857L278.883 240.205L281.491 237.861L280.851 241.008L283.944 242.269L287.335 231.487L286.167 230.926Z" fill="#2F2E41"/>
<path d="M315.705 226.375L316.012 227.151H315.705V226.375Z" fill="#2F2E41"/>
<path d="M314.031 227.317L308.995 229.061L308.204 229.334L309.429 232.279L304.758 239.503C304.527 239.86 304.416 240.282 304.441 240.706C304.467 241.13 304.627 241.535 304.9 241.862C305.172 242.189 305.542 242.42 305.955 242.521C306.368 242.623 306.803 242.59 307.196 242.427L315.39 239.032L315.592 235.533L317.353 238.219L320.44 236.94L315.256 226.895L314.031 227.317Z" fill="#2F2E41"/>
<path d="M283.463 119.431C283.702 119.896 284.04 120.303 284.453 120.623C284.866 120.944 285.345 121.169 285.855 121.285C286.365 121.4 286.894 121.403 287.405 121.292C287.916 121.181 288.396 120.959 288.812 120.643L299.403 127.668L299.423 121.067L289.363 115.408C288.785 114.745 287.983 114.317 287.109 114.205C286.236 114.093 285.352 114.305 284.625 114.801C283.898 115.297 283.378 116.042 283.164 116.896C282.95 117.749 283.056 118.651 283.463 119.431V119.431Z" fill="#FFD0B6"/>
<path d="M291.375 122.482L296.316 116.865L316.435 128.8L343.104 126.359C344.422 126.239 345.751 126.41 346.996 126.86C348.24 127.31 349.371 128.029 350.306 128.965C351.242 129.9 351.96 131.03 352.409 132.275C352.859 133.519 353.028 134.847 352.906 136.164C352.683 138.543 351.525 140.736 349.686 142.263C347.847 143.789 345.476 144.524 343.095 144.307L313.059 141.529L291.375 122.482Z" fill="#CCCCCC"/>
<path d="M353.274 122.568L353.228 122.51C349.476 122.14 345.698 122.866 342.35 124.599C339.003 126.332 336.231 128.998 334.369 132.274L332.106 136.258C324.785 145.202 330.105 151.369 330.424 152.287L327.882 163.995L328.452 167.913L328.736 169.077L357.744 184.223C359.395 176.294 357.798 169.537 351.782 164.376L357.603 146.276C358.894 142.274 359.174 138.015 358.419 133.879C357.663 129.742 355.896 125.857 353.274 122.568Z" fill="#CCCCCC"/>
<path d="M330.21 210.499H320.905C320.394 210.499 319.899 210.314 319.513 209.979C319.127 209.643 318.874 209.18 318.802 208.674C318.228 204.449 318.228 200.166 318.802 195.942C318.873 195.441 319.121 194.983 319.5 194.648C319.878 194.314 320.364 194.125 320.87 194.116C323.797 192.805 326.95 192.805 330.242 194.116C330.549 194.12 330.851 194.191 331.127 194.324C331.403 194.457 331.647 194.649 331.841 194.886C332.043 195.133 332.188 195.422 332.265 195.732C332.341 196.041 332.348 196.364 332.284 196.677C331.537 200.394 331.537 204.222 332.284 207.939C332.348 208.251 332.341 208.574 332.265 208.884C332.188 209.193 332.043 209.482 331.841 209.729C331.643 209.97 331.394 210.165 331.112 210.298C330.83 210.431 330.522 210.5 330.21 210.499Z" fill="#E35A33"/>
<path d="M329.235 198.97H321.404C321.339 198.971 321.275 198.959 321.215 198.934C321.155 198.91 321.101 198.874 321.055 198.829C321.009 198.783 320.973 198.729 320.948 198.669C320.923 198.61 320.91 198.546 320.91 198.481C320.91 198.417 320.923 198.353 320.948 198.293C320.973 198.234 321.009 198.179 321.055 198.134C321.101 198.088 321.155 198.053 321.215 198.028C321.275 198.004 321.339 197.992 321.404 197.992H329.235C329.3 197.992 329.364 198.004 329.424 198.028C329.484 198.053 329.538 198.088 329.584 198.134C329.63 198.179 329.667 198.234 329.691 198.293C329.716 198.353 329.729 198.417 329.729 198.481C329.729 198.546 329.716 198.61 329.691 198.669C329.667 198.729 329.63 198.783 329.584 198.829C329.538 198.874 329.484 198.91 329.424 198.934C329.364 198.959 329.3 198.971 329.235 198.97Z" fill="white"/>
<path d="M329.235 202.883H321.404C321.339 202.883 321.275 202.871 321.215 202.847C321.155 202.822 321.101 202.786 321.055 202.741C321.009 202.695 320.973 202.641 320.948 202.582C320.923 202.522 320.91 202.458 320.91 202.393C320.91 202.329 320.923 202.265 320.948 202.205C320.973 202.146 321.009 202.092 321.055 202.046C321.101 202.001 321.155 201.965 321.215 201.94C321.275 201.916 321.339 201.904 321.404 201.904H329.235C329.3 201.904 329.364 201.916 329.424 201.94C329.484 201.965 329.538 202.001 329.584 202.046C329.63 202.092 329.667 202.146 329.691 202.205C329.716 202.265 329.729 202.329 329.729 202.393C329.729 202.458 329.716 202.522 329.691 202.582C329.667 202.641 329.63 202.695 329.584 202.741C329.538 202.786 329.484 202.822 329.424 202.847C329.364 202.871 329.3 202.883 329.235 202.883Z" fill="white"/>
<path d="M329.236 206.797H321.404C321.34 206.797 321.275 206.785 321.216 206.761C321.156 206.736 321.101 206.7 321.055 206.655C321.009 206.609 320.973 206.555 320.948 206.496C320.923 206.436 320.91 206.372 320.91 206.307C320.91 206.243 320.923 206.179 320.948 206.119C320.973 206.06 321.009 206.005 321.055 205.96C321.101 205.915 321.156 205.879 321.216 205.854C321.275 205.83 321.34 205.818 321.404 205.818H329.236C329.3 205.818 329.364 205.83 329.424 205.854C329.484 205.879 329.539 205.915 329.585 205.96C329.631 206.005 329.667 206.06 329.692 206.119C329.717 206.179 329.73 206.243 329.73 206.307C329.73 206.372 329.717 206.436 329.692 206.496C329.667 206.555 329.631 206.609 329.585 206.655C329.539 206.7 329.484 206.736 329.424 206.761C329.364 206.785 329.3 206.797 329.236 206.797Z" fill="white"/>
<path d="M285.169 122.654H275.864C275.353 122.653 274.858 122.469 274.472 122.133C274.086 121.798 273.833 121.334 273.761 120.828C273.187 116.603 273.187 112.321 273.761 108.096C273.832 107.596 274.08 107.137 274.459 106.803C274.837 106.468 275.323 106.279 275.829 106.271C278.756 104.959 281.909 104.959 285.201 106.27C285.508 106.274 285.81 106.345 286.086 106.479C286.362 106.612 286.606 106.804 286.8 107.041C287.002 107.288 287.147 107.576 287.224 107.886C287.3 108.196 287.307 108.518 287.243 108.831C286.496 112.548 286.496 116.376 287.243 120.093C287.307 120.405 287.3 120.728 287.224 121.038C287.147 121.348 287.002 121.636 286.8 121.883C286.602 122.125 286.353 122.319 286.071 122.452C285.789 122.586 285.481 122.654 285.169 122.654Z" fill="#E35A33"/>
<path d="M284.195 111.125H276.363C276.299 111.125 276.235 111.113 276.175 111.089C276.115 111.064 276.06 111.028 276.015 110.983C275.969 110.938 275.932 110.883 275.907 110.824C275.882 110.764 275.87 110.7 275.87 110.636C275.87 110.571 275.882 110.507 275.907 110.447C275.932 110.388 275.969 110.334 276.015 110.288C276.06 110.243 276.115 110.207 276.175 110.182C276.235 110.158 276.299 110.146 276.363 110.147H284.195C284.259 110.146 284.324 110.158 284.383 110.182C284.443 110.207 284.498 110.243 284.544 110.288C284.59 110.334 284.626 110.388 284.651 110.447C284.676 110.507 284.689 110.571 284.689 110.636C284.689 110.7 284.676 110.764 284.651 110.824C284.626 110.883 284.59 110.938 284.544 110.983C284.498 111.028 284.443 111.064 284.383 111.089C284.324 111.113 284.259 111.125 284.195 111.125Z" fill="white"/>
<path d="M284.195 115.037H276.363C276.299 115.037 276.235 115.025 276.175 115.001C276.115 114.977 276.06 114.941 276.015 114.895C275.969 114.85 275.932 114.796 275.907 114.736C275.882 114.676 275.87 114.612 275.87 114.548C275.87 114.483 275.882 114.419 275.907 114.36C275.932 114.3 275.969 114.246 276.015 114.2C276.06 114.155 276.115 114.119 276.175 114.095C276.235 114.07 276.299 114.058 276.363 114.059H284.195C284.259 114.058 284.324 114.07 284.383 114.095C284.443 114.119 284.498 114.155 284.544 114.2C284.59 114.246 284.626 114.3 284.651 114.36C284.676 114.419 284.689 114.483 284.689 114.548C284.689 114.612 284.676 114.676 284.651 114.736C284.626 114.796 284.59 114.85 284.544 114.895C284.498 114.941 284.443 114.977 284.383 115.001C284.324 115.025 284.259 115.037 284.195 115.037Z" fill="white"/>
<path d="M284.195 118.951H276.363C276.299 118.951 276.234 118.939 276.174 118.915C276.115 118.891 276.06 118.855 276.014 118.809C275.968 118.764 275.932 118.71 275.907 118.65C275.882 118.59 275.869 118.526 275.869 118.462C275.869 118.397 275.882 118.333 275.907 118.274C275.932 118.214 275.968 118.16 276.014 118.114C276.06 118.069 276.115 118.033 276.174 118.009C276.234 117.984 276.299 117.972 276.363 117.973H284.195C284.259 117.972 284.323 117.984 284.383 118.009C284.443 118.033 284.498 118.069 284.544 118.114C284.59 118.16 284.626 118.214 284.651 118.274C284.676 118.333 284.689 118.397 284.689 118.462C284.689 118.526 284.676 118.59 284.651 118.65C284.626 118.71 284.59 118.764 284.544 118.809C284.498 118.855 284.443 118.891 284.383 118.915C284.323 118.939 284.259 118.951 284.195 118.951Z" fill="white"/>
<path d="M121.829 146.513H112.524C112.012 146.513 111.518 146.328 111.132 145.992C110.745 145.657 110.493 145.194 110.421 144.687C109.847 140.463 109.847 136.18 110.421 131.955C110.492 131.455 110.739 130.997 111.118 130.662C111.497 130.327 111.983 130.139 112.488 130.13C115.416 128.819 118.569 128.819 121.861 130.13C122.167 130.134 122.469 130.205 122.745 130.338C123.022 130.471 123.265 130.663 123.459 130.9C123.662 131.147 123.806 131.436 123.883 131.745C123.96 132.055 123.967 132.378 123.903 132.69C123.155 136.407 123.155 140.235 123.903 143.952C123.967 144.265 123.96 144.588 123.883 144.897C123.806 145.207 123.662 145.496 123.459 145.743C123.262 145.984 123.013 146.178 122.731 146.312C122.449 146.445 122.141 146.514 121.829 146.513Z" fill="#E35A33"/>
<path d="M120.854 134.984H113.023C112.958 134.985 112.894 134.972 112.834 134.948C112.775 134.924 112.72 134.888 112.674 134.842C112.628 134.797 112.592 134.743 112.567 134.683C112.542 134.624 112.529 134.56 112.529 134.495C112.529 134.43 112.542 134.366 112.567 134.307C112.592 134.247 112.628 134.193 112.674 134.148C112.72 134.102 112.775 134.066 112.834 134.042C112.894 134.018 112.958 134.005 113.023 134.006H120.854C120.919 134.005 120.983 134.018 121.043 134.042C121.103 134.066 121.157 134.102 121.203 134.148C121.249 134.193 121.286 134.247 121.311 134.307C121.335 134.366 121.348 134.43 121.348 134.495C121.348 134.56 121.335 134.624 121.311 134.683C121.286 134.743 121.249 134.797 121.203 134.842C121.157 134.888 121.103 134.924 121.043 134.948C120.983 134.972 120.919 134.985 120.854 134.984Z" fill="white"/>
<path d="M120.854 138.896H113.023C112.958 138.897 112.894 138.885 112.834 138.86C112.775 138.836 112.72 138.8 112.674 138.754C112.628 138.709 112.592 138.655 112.567 138.595C112.542 138.536 112.529 138.472 112.529 138.407C112.529 138.342 112.542 138.279 112.567 138.219C112.592 138.159 112.628 138.105 112.674 138.06C112.72 138.014 112.775 137.978 112.834 137.954C112.894 137.93 112.958 137.917 113.023 137.918H120.854C120.919 137.917 120.983 137.93 121.043 137.954C121.103 137.978 121.157 138.014 121.203 138.06C121.249 138.105 121.286 138.159 121.311 138.219C121.335 138.279 121.348 138.342 121.348 138.407C121.348 138.472 121.335 138.536 121.311 138.595C121.286 138.655 121.249 138.709 121.203 138.754C121.157 138.8 121.103 138.836 121.043 138.86C120.983 138.885 120.919 138.897 120.854 138.896Z" fill="white"/>
<path d="M120.854 142.81H113.023C112.958 142.811 112.894 142.799 112.834 142.774C112.774 142.75 112.72 142.714 112.674 142.669C112.628 142.623 112.591 142.569 112.567 142.509C112.542 142.45 112.529 142.386 112.529 142.321C112.529 142.257 112.542 142.193 112.567 142.133C112.591 142.073 112.628 142.019 112.674 141.974C112.72 141.928 112.774 141.892 112.834 141.868C112.894 141.844 112.958 141.831 113.023 141.832H120.854C120.919 141.831 120.983 141.844 121.043 141.868C121.103 141.892 121.157 141.928 121.203 141.974C121.249 142.019 121.286 142.073 121.311 142.133C121.335 142.193 121.348 142.257 121.348 142.321C121.348 142.386 121.335 142.45 121.311 142.509C121.286 142.569 121.249 142.623 121.203 142.669C121.157 142.714 121.103 142.75 121.043 142.774C120.983 142.799 120.919 142.811 120.854 142.81Z" fill="white"/>
<path d="M332.936 198.615C333.386 198.349 333.772 197.988 334.068 197.557C334.363 197.126 334.561 196.635 334.646 196.119C334.731 195.604 334.702 195.076 334.561 194.573C334.42 194.07 334.17 193.603 333.829 193.207L340.219 182.227L333.623 182.598L328.567 192.968C327.939 193.585 327.559 194.41 327.499 195.288C327.439 196.166 327.703 197.035 328.242 197.731C328.78 198.427 329.555 198.901 330.421 199.064C331.286 199.227 332.181 199.067 332.936 198.615V198.615Z" fill="#FFD0B6"/>
<path d="M335.514 190.542L329.61 185.946L340.339 165.17L336.319 138.712C336.12 137.404 336.212 136.069 336.588 134.8C336.964 133.532 337.614 132.362 338.494 131.373C339.373 130.384 340.46 129.601 341.676 129.079C342.892 128.557 344.209 128.309 345.532 128.353C347.921 128.434 350.181 129.459 351.815 131.203C353.449 132.947 354.324 135.268 354.248 137.656L353.255 167.782L335.514 190.542Z" fill="#CCCCCC"/>
<path d="M50.1337 184.866C50.5056 184.492 50.791 184.042 50.9698 183.546C51.1486 183.051 51.2165 182.522 51.1687 181.997C51.1209 181.472 50.9585 180.965 50.693 180.509C50.4276 180.054 50.0654 179.663 49.6321 179.362L55.3746 150.861L49.0331 152.896L44.4366 180.464C43.9801 181.224 43.8188 182.126 43.9831 182.998C44.1475 183.869 44.6261 184.651 45.3283 185.193C46.0306 185.736 46.9076 186.002 47.7933 185.942C48.6789 185.882 49.5116 185.499 50.1337 184.866H50.1337Z" fill="#9E616A"/>
<path d="M58.6126 124.565L54.6781 121.597C54.6781 121.597 51.2072 121.351 50.5925 127.606C49.9777 133.861 48.7155 146.05 48.7155 146.05L42.6948 173.915L51.029 175.743L57.4776 145.672L61.3461 136.742L58.6126 124.565Z" fill="#CCCCCC"/>
<path d="M52.126 170.063L74.2974 169.694L76.1451 154.555H52.126V170.063Z" fill="#9E616A"/>
<path d="M72.0802 263.226H77.1985L79.6334 243.498L72.0791 243.499L72.0802 263.226Z" fill="#9E616A"/>
<path d="M40.0146 263.7L45.133 263.664L47.4295 243.92L40.7727 245.446L40.0146 263.7Z" fill="#9E616A"/>
<path d="M56.0229 141.517L54.8633 144.53L55.095 147.543L77.7928 155.399L76.6668 142.213L74.1152 139.199L56.0229 141.517Z" fill="#FFD0B6"/>
<path d="M65.7606 114.403C70.2378 114.403 73.8673 110.776 73.8673 106.302C73.8673 101.828 70.2378 98.2012 65.7606 98.2012C61.2833 98.2012 57.6538 101.828 57.6538 106.302C57.6538 110.776 61.2833 114.403 65.7606 114.403Z" fill="#9E616A"/>
<path d="M70.8108 260.703L78.9019 260.221V263.685L86.5943 268.993C86.9743 269.256 87.2605 269.632 87.411 270.068C87.5616 270.505 87.5687 270.977 87.4313 271.418C87.2939 271.858 87.0191 272.243 86.6472 272.517C86.2753 272.79 85.8256 272.938 85.3639 272.938H75.7311L74.0708 269.511L73.4225 272.938H69.7905L70.8108 260.703Z" fill="#2F2E41"/>
<path d="M38.2636 261.19L46.3511 260.65L46.3754 264.114L54.1049 269.369C54.4867 269.629 54.7754 270.003 54.9291 270.438C55.0827 270.873 55.0931 271.346 54.9588 271.788C54.8245 272.229 54.5524 272.616 54.1824 272.892C53.8124 273.168 53.3638 273.319 52.9021 273.322L43.2696 273.389L41.5852 269.975L40.961 273.405L37.3291 273.431L38.2636 261.19Z" fill="#2F2E41"/>
<path d="M38.4221 248.574L42.1491 218.806L46.5834 187.419C43.3361 181.393 50.6482 162.68 50.6482 162.68L51.6803 162.729L75.0418 167.133L75.0367 167.111C79.8149 180.133 81.398 186.567 81.1361 200.435L80.1948 250.287H80.4901C80.9801 250.287 81.4501 250.482 81.7966 250.828C82.1431 251.174 82.3377 251.644 82.3377 252.134C82.3377 252.623 82.1431 253.093 81.7966 253.439C81.4501 253.785 80.9801 253.98 80.4901 253.98H71.252C71.0091 253.98 70.7685 253.933 70.544 253.84C70.3195 253.748 70.1154 253.612 69.9435 253.44C69.7716 253.269 69.6352 253.065 69.5422 252.841C69.4491 252.617 69.4012 252.376 69.4012 252.134C69.4012 251.891 69.4491 251.65 69.5422 251.426C69.6352 251.202 69.7716 250.998 69.9435 250.827C70.1154 250.655 70.3195 250.519 70.544 250.427C70.7685 250.334 71.0091 250.287 71.252 250.287H71.4902L63.0108 190.928L55.8215 215.852L47.692 248.346C50.6482 247.607 50.1892 249.318 50.1892 250.287C50.1892 250.777 49.9945 251.247 49.648 251.593C49.3015 251.939 48.8316 252.134 48.3415 252.134H39.1035C38.6738 252.134 38.2574 251.985 37.9262 251.711C37.5949 251.438 37.3695 251.057 37.2887 250.636C37.208 250.214 37.277 249.777 37.4839 249.401C37.6908 249.025 38.0226 248.732 38.4221 248.574H38.4221Z" fill="#2F2E41"/>
<path d="M48.8291 163.648L49.5682 156.263C49.6449 155.962 49.8152 155.692 50.0545 155.494C50.2938 155.295 50.5899 155.177 50.9003 155.157C51.2083 151.639 52.5038 136.462 52.5812 135.8L52.5843 135.772L53.1734 123.197C53.1948 122.74 53.3838 122.307 53.7044 121.981C54.0249 121.654 54.4545 121.458 54.9111 121.428L58.0228 121.225C58.0654 121.223 58.1059 121.205 58.1356 121.174C58.1653 121.144 58.1819 121.103 58.1819 121.06C58.1819 120.717 58.2496 120.377 58.3811 120.059C58.5126 119.742 58.7053 119.454 58.9483 119.211C59.1913 118.968 59.4797 118.776 59.7972 118.644C60.1147 118.513 60.455 118.445 60.7986 118.445H70.0113C70.608 118.446 71.1841 118.663 71.6315 119.058C72.0789 119.453 72.3668 119.997 72.4411 120.588C72.4452 120.629 72.4645 120.667 72.4952 120.694C72.5259 120.721 72.5657 120.736 72.6067 120.735H72.6078C73.6546 120.713 74.6744 121.067 75.4823 121.733C76.2901 122.398 76.8324 123.331 77.0108 124.362C78.2703 131.685 80.7944 148.304 79.5464 157.544C79.112 160.76 80.0485 158.213 80.2128 160.904C80.2291 161.164 80.1939 161.425 80.1092 161.671C80.0245 161.918 79.892 162.145 79.7193 162.34C80.0729 162.469 80.3617 162.731 80.5227 163.071C80.6838 163.411 80.7042 163.801 80.5796 164.155L80.7415 164.115C80.694 164.304 80.61 164.48 80.4941 164.636C80.3783 164.792 80.2328 164.923 80.0662 165.022C79.8996 165.122 79.715 165.188 79.5229 165.216C79.3309 165.244 79.1351 165.234 78.9469 165.187L54.8443 168.45C54.0527 168.251 48.6296 164.439 48.8291 163.648Z" fill="#CCCCCC"/>
<path d="M113.234 133.623C113.083 134.128 112.824 134.593 112.473 134.987C112.122 135.381 111.69 135.693 111.206 135.901C110.721 136.109 110.197 136.209 109.67 136.193C109.143 136.177 108.626 136.046 108.155 135.809L98.8373 144.306L97.6001 137.767L106.644 130.721C107.095 129.957 107.811 129.385 108.656 129.114C109.501 128.842 110.417 128.889 111.229 129.247C112.041 129.605 112.694 130.248 113.064 131.054C113.433 131.861 113.494 132.775 113.234 133.623H113.234Z" fill="#9E616A"/>
<path d="M80.8024 127.127C80.8024 127.127 77.5533 119.79 73.4497 121.248C69.346 122.707 71.4648 129.826 71.4648 129.826L86.8823 153.041C86.8823 153.041 109.12 138.786 106.416 138.685C103.712 138.585 102.903 133.67 102.903 133.67L91.1499 139.538L90.7522 137.449L90.1148 138.086L88.4701 136.793L80.8024 127.127Z" fill="#CCCCCC"/>
<path d="M346.587 119.067C352.838 119.067 357.905 114.003 357.905 107.757C357.905 101.511 352.838 96.4473 346.587 96.4473C340.336 96.4473 335.269 101.511 335.269 107.757C335.269 114.003 340.336 119.067 346.587 119.067Z" fill="#FFD0B6"/>
<path d="M382.911 124.399C381.604 126.249 379.698 127.59 377.515 128.195C376.642 128.455 375.74 128.608 374.829 128.651C374.717 127.622 374.447 126.616 374.031 125.669C374.073 126.678 373.933 127.685 373.616 128.644C372.249 128.566 370.913 128.209 369.69 127.593C368.489 126.989 367.445 126.114 366.641 125.036C365.838 123.959 365.296 122.71 365.06 121.387C364.581 118.294 365.984 115.256 366.492 112.167C367.001 109.078 366.045 105.166 363.019 104.355C360.714 103.736 360.973 104.003 359.057 105.425C361.05 108.369 353.69 119.158 350.678 118.217C348.975 117.685 347.885 116.124 347.533 116.124C345.166 120.199 349.623 127.065 345.131 128.49L345.501 128.121C348.213 124.788 342.545 117.733 345.257 114.4C346.013 113.467 346.819 112.363 346.595 111.183C346.383 110.062 344.603 109.469 344.081 110.39C345.019 108.243 343.634 105.378 341.342 104.827C339.305 104.336 339.342 104.941 337.299 105.204C337.165 104.321 336.915 103.46 336.556 102.643C336.594 103.523 336.491 104.404 336.251 105.252C335.529 105.238 334.832 104.986 334.268 104.536C332.601 103.194 332.939 100.375 334.426 98.8376C335.916 97.3001 338.13 96.7466 340.241 96.3884C340.854 92.1179 352.646 91.6724 354.209 95.9395C354.874 92.753 358.866 91.0993 361.969 92.0878C365.072 93.0764 367.225 95.9721 368.358 99.0237C369.492 102.073 369.808 105.355 370.507 108.532C371.205 111.709 372.385 114.944 374.815 117.11C377.245 119.273 381.205 119.989 383.765 117.98C384.137 119.042 384.254 120.176 384.105 121.291C383.957 122.407 383.548 123.471 382.911 124.399Z" fill="#2F2E41"/>
<path d="M489.096 150.21L487.511 158.154C487.392 158.761 487.267 159.379 487.132 159.992C485.807 159.718 484.434 159.794 483.148 160.214C484.168 161.671 485.082 163.198 485.883 164.785C484.885 167.86 483.42 170.701 480.967 172.757C479.329 174.099 477.372 174.996 475.286 175.363C473.199 175.73 471.054 175.553 469.056 174.85L469.126 174.535C466.489 169.422 467.921 162.974 471.199 158.251C472.871 155.921 474.852 153.829 477.087 152.032C479.301 150.188 481.694 148.534 484.065 146.902C484.598 146.536 485.228 146.337 485.874 146.33C486.521 146.324 487.154 146.51 487.694 146.865C488.234 147.22 488.656 147.728 488.906 148.324C489.155 148.919 489.222 149.576 489.096 150.21Z" fill="#E4E4E4"/>
<path d="M469.62 193.964C468.953 189.109 468.267 184.193 468.735 179.286C469.15 174.928 470.48 170.672 473.189 167.182C474.627 165.333 476.376 163.749 478.359 162.501C478.876 162.175 479.352 162.994 478.837 163.318C475.407 165.484 472.754 168.683 471.26 172.453C469.61 176.646 469.346 181.217 469.632 185.67C469.804 188.364 470.168 191.039 470.536 193.712C470.565 193.833 470.547 193.961 470.486 194.069C470.424 194.177 470.324 194.258 470.205 194.294C470.083 194.327 469.954 194.311 469.845 194.249C469.736 194.187 469.656 194.084 469.622 193.964L469.62 193.964Z" fill="#F2F2F2"/>
<path d="M507.354 273.834L0.64622 274.001C0.475178 274 0.311315 273.932 0.190546 273.811C0.0697759 273.69 0.00195312 273.526 0.00195312 273.355C0.00195312 273.184 0.0697759 273.02 0.190546 272.899C0.311315 272.778 0.475178 272.71 0.64622 272.71L507.354 272.543C507.525 272.543 507.689 272.612 507.81 272.733C507.93 272.854 507.998 273.018 507.998 273.189C507.998 273.36 507.93 273.523 507.81 273.645C507.689 273.766 507.525 273.834 507.354 273.834Z" fill="#CACACA"/>
<path d="M56.2192 101.342C54.9759 101.939 53.5841 101.042 52.5107 100.153L52.8946 100.484C50.9975 102.329 50.1105 104.982 49.6771 107.594C49.2433 110.204 49.1949 112.872 48.6487 115.463C48.102 118.052 46.9681 120.652 44.85 122.237C42.0124 124.36 38.0988 124.224 34.6166 123.573C34.5702 123.564 34.527 123.557 34.4806 123.547C35.4175 120.844 35.7984 117.979 35.6004 115.125C34.6669 117.985 33.0779 120.588 30.9599 122.726C28.6511 122.091 26.3976 121.27 24.2213 120.272C22.8132 119.625 21.2969 118.739 20.9061 117.24C20.5143 115.751 21.4242 114.19 22.6407 113.251C23.8573 112.311 25.3504 111.821 26.7363 111.151C28.12 110.485 29.4893 109.535 30.0433 108.101C31.3211 104.802 27.681 101.016 29.0996 97.7733C29.7992 96.1786 31.5127 95.3111 33.1232 94.6423C35.5819 93.6241 38.1066 92.7732 40.6801 92.0952C42.9393 91.4998 45.2982 91.037 47.5997 91.4274C49.9011 91.8177 52.1558 93.2165 52.9841 95.4005C54.3662 95.8673 55.8335 96.3934 56.7205 97.5558C57.607 98.7156 57.5356 100.712 56.2192 101.342Z" fill="#2F2E41"/>
<path d="M67.282 97.5195C63.7251 94.7136 60.8493 95.1926 58.6308 96.9358C58.2578 96.5212 56.6706 97.6619 56.1332 97.4979L54.1895 101.144C53.1893 102.908 52.7789 104.708 52.9406 105.722C51.1008 110.877 55.4637 114.359 60.6233 116.197C62.6821 116.936 64.9284 116.968 67.0077 116.29L67.0711 115.411L67.4619 116.131C67.4619 116.131 72.1787 125.836 73.2933 126.272C72.617 124.519 70.8332 116.187 70.3353 114.45C69.6526 112.087 70.119 108.332 70.5202 106.031C70.7703 104.612 70.7834 103.161 70.5589 101.738L70.549 101.675L71.6526 103.901L74.1287 102.346C73.1824 99.5913 73.1635 96.2963 67.282 97.5195Z" fill="#2F2E41"/>
</svg>
